<svg id="Capa_1" enable-background="new 0 0 512 512" height="512" viewBox="0 0 512 512" width="512" xmlns="http://www.w3.org/2000/svg"><g><path d="m161.874 15.631v87.56c0 39.457-16.461 73.74-40.688 91.222-8.116 5.864-13.029 14.65-13.029 24.086v92.603c-2.692-1.621-5.664-2.842-8.826-3.562-2.151-.5-4.393-.761-6.695-.761h-16.15c-5.684 0-10.998 1.581-15.521 4.333v-92.613c0-9.436-4.903-18.222-13.029-24.086-24.226-17.482-40.687-51.765-40.687-91.222v-87.56c0-8.536 6.925-15.461 15.461-15.461 3.963 0 7.575 1.491 10.307 3.943.21.19.42.39.62.59 2.802 2.792 4.533 6.654 4.533 10.927v94.214c0 8.536 6.935 15.461 15.471 15.461 4.263 0 8.126-1.731 10.927-4.523 2.802-2.812 4.533-6.675 4.533-10.938v-94.213c0-8.536 6.925-15.461 15.461-15.461 4.273 0 8.136 1.731 10.928 4.533 2.802 2.792 4.533 6.654 4.533 10.927v94.214c0 8.536 6.935 15.461 15.471 15.461 4.263 0 8.126-1.731 10.927-4.523 2.802-2.812 4.533-6.675 4.533-10.938v-94.213c0-8.536 6.925-15.461 15.461-15.461 4.273 0 8.136 1.731 10.928 4.533 2.8 2.792 4.531 6.655 4.531 10.928z" fill="#eaf6ff"/><path d="m488.082 7.013v303.271c-4.268-2.227-9.113-3.484-14.257-3.484h-14.34c-5.144 0-9.989 1.258-14.257 3.484v-67.195c0-3.869-3.136-7.005-7.005-7.005h-19.319c-3.869 0-7.005-3.136-7.005-7.005v-153.247c0-39.466 30.02-71.929 68.468-75.797 4.128-.414 7.715 2.829 7.715 6.978z" fill="#eaf6ff"/><g fill="#d8ecfe"><path d="m448.921 236.082h19.323c3.869 0 7.005 3.136 7.005 7.005v63.744c-.47-.02-.941-.03-1.421-.03h-14.34c-5.143 0-9.987 1.261-14.26 3.482v-67.196c0-3.869-3.136-7.005-7.005-7.005h-19.323c-3.863 0-7.005-3.132-7.005-7.005v-153.245c0-39.467 30.021-71.929 68.477-75.792 3.723-.38 7.015 2.232 7.605 5.804-27.089 11.668-46.061 38.616-46.061 69.988v153.245c0 3.872 3.142 7.005 7.005 7.005z"/><path d="m488.077 306.83v3.452c-2.011-1.051-4.153-1.881-6.404-2.472 2.061-.54 4.203-.88 6.404-.98z"/><path d="m475.249 306.83c2.212.1 4.363.44 6.424.981-2.252.58-4.393 1.421-6.424 2.472z"/></g><path d="m466.684 512h-.052c-21.024 0-38.068-17.043-38.068-38.068v-146.026c0-17.184 13.931-31.115 31.115-31.115h13.957c17.184 0 31.115 13.931 31.115 31.115v146.027c0 21.024-17.043 38.067-38.067 38.067z" fill="#fe99a0"/><path d="m481.663 508.928c-4.603 1.981-9.687 3.072-15.01 3.072-21.034 0-38.086-17.052-38.086-38.096v-145.98c0-17.192 13.94-31.131 31.131-31.131h13.919c2.782 0 5.484.37 8.056 1.051-13.289 3.542-23.086 15.671-23.086 30.081v145.98c0 15.71 9.507 29.199 23.076 35.023z" fill="#fd8087"/><g><path d="m360.727 103.398v.948c0 36.617-15.546 70.76-41.328 90.78l-.474.371c-.041.031-.082.062-.124.093-7.958 6.154-12.793 15.515-12.793 25.587v89.107c-4.268-2.227-9.123-3.484-14.267-3.484h-14.329c-5.144 0-9.989 1.258-14.257 3.484v-87.385c0-10.402-5.154-20.03-13.577-26.143-.567-.412-1.124-.835-1.68-1.258l-.474-.371c-12.896-10.01-23.226-23.545-30.329-39.163-7.113-15.618-11-33.308-11-51.616 0-36.875 15.762-71.224 41.844-91.182l.938-.711c21.679-16.587 49.555-16.36 71.038.567 25.493 20.08 40.812 54.017 40.812 90.376z" fill="#eaf6ff"/><path d="m226.712 104.347c0 18.309 3.886 35.998 11 51.616 7.103 15.618 17.432 29.153 30.329 39.163l.474.371c.557.423 1.113.845 1.68 1.258 8.422 6.113 13.577 15.742 13.577 26.143v83.901h-6.361c-5.144 0-9.989 1.258-14.257 3.484v-87.385c0-10.402-5.154-20.03-13.577-26.143-.567-.412-1.124-.835-1.68-1.258l-.474-.371c-12.896-10.01-23.226-23.545-30.329-39.163-7.113-15.618-11-33.308-11-51.616 0-36.875 15.762-71.224 41.844-91.182l.938-.711c13.731-10.505 29.947-14.267 45.452-11.309-8.68 1.66-17.144 5.422-24.834 11.309l-.938.711c-26.082 19.958-41.844 54.307-41.844 91.182z" fill="#d8ecfe"/><path d="m284.603 512h-.052c-21.024 0-38.068-17.043-38.068-38.068v-146.026c0-17.184 13.931-31.115 31.115-31.115h13.957c17.184 0 31.115 13.931 31.115 31.115v146.027c0 21.024-17.043 38.067-38.067 38.067z" fill="#57be92"/><path d="m299.589 508.928c-4.603 1.981-9.687 3.072-15.01 3.072-21.044 0-38.096-17.052-38.096-38.096v-145.98c0-17.192 13.94-31.131 31.141-31.131h13.91c2.782 0 5.484.37 8.055 1.051-13.299 3.552-23.086 15.671-23.086 30.081v145.98c0 15.71 9.506 29.199 23.086 35.023z" fill="#22b27f"/></g><path d="m122.658 326.793v148.211c0 15.17-9.136 28.199-22.195 33.893-.61.27-1.231.53-1.861.76-4.023 1.501-8.376 2.322-12.919 2.322h-2.232c-20.424 0-36.985-16.551-36.985-36.975v-148.211c0-16.581 13.449-30.021 30.021-30.021h16.151c2.302 0 4.543.26 6.695.761.34.08.68.16 1.011.25 12.847 3.393 22.314 15.091 22.314 29.01z" fill="#57be92"/><path d="m94.872 4.114c-3.165 2.825-5.154 6.938-5.154 11.515v94.213c0 4.268-1.732 8.134-4.536 10.938-2.794 2.794-6.659 4.526-10.927 4.526-3.959 0-7.577-1.495-10.309-3.938.217-.196.423-.392.619-.588 2.804-2.804 4.536-6.67 4.536-10.938v-94.213c0-8.536 6.928-15.463 15.463-15.463 3.957-.001 7.576 1.494 10.308 3.948z" fill="#d8ecfe"/><path d="m156.725 4.114c-3.165 2.825-5.154 6.938-5.154 11.515v94.213c0 4.268-1.732 8.134-4.536 10.938-2.794 2.794-6.659 4.526-10.927 4.526-3.959 0-7.577-1.495-10.309-3.938.217-.196.423-.392.619-.588 2.804-2.804 4.536-6.67 4.536-10.938v-94.213c0-8.536 6.928-15.463 15.463-15.463 3.958-.001 7.576 1.494 10.308 3.948z" fill="#d8ecfe"/><path d="m100.463 508.898c-.61.27-1.231.53-1.861.76-4.023 1.501-8.376 2.322-12.919 2.322h-2.232c-20.424 0-36.985-16.551-36.985-36.975v-148.212c0-16.581 13.449-30.021 30.021-30.021h16.151c2.302 0 4.543.26 6.695.761.34.08.68.16 1.011.25-13.049 3.623-22.946 15.711-22.946 29.911v146.19c-.001 15.541 9.745 29.09 23.065 35.014z" fill="#22b27f"/><path d="m81.58 218.499v78.273h-5.094c-5.684 0-10.998 1.581-15.521 4.333v-82.607c0-9.436-4.903-18.222-13.029-24.086-24.226-17.481-40.687-51.764-40.687-91.221v-87.56c0-8.536 6.925-15.461 15.461-15.461 3.963 0 7.575 1.491 10.307 3.943-3.162 2.822-5.154 6.935-5.154 11.518v87.56c0 39.457 16.461 73.74 40.688 91.222 8.125 5.864 13.029 14.65 13.029 24.086z" fill="#d8ecfe"/></g></svg>