<svg id="Capa_1" enable-background="new 0 0 512 512" height="512" viewBox="0 0 512 512" width="512" xmlns="http://www.w3.org/2000/svg"><g><path d="m323.621 494.712h-230.905c-51.21 0-92.716-41.506-92.716-92.716v-21.675c0-1.442.412-2.771 1.144-3.894 1.277-1.999 3.513-3.317 6.068-3.317h29.36l15.095-10h406l17.762 10h29.36c2.555 0 4.79 1.319 6.068 3.317.731 1.123 1.143 2.452 1.143 3.894v21.675c0 51.21-41.506 92.716-92.716 92.716h-61.986z" fill="#fece85"/><path d="m478.159 264.001v39.847c0 11.373-9.22 20.604-20.604 20.604l-13.222 10h-374.666l-15.222-10c-11.383 0-20.604-9.23-20.604-20.604v-39.847c.052-11.342 9.251-20.511 20.604-20.511l15.888-10h370l17.222 10c11.353.001 20.552 9.169 20.604 20.511z" fill="#dc8758"/><path d="m51.509 400.923v21.675c0 28.979 13.289 54.847 34.109 71.845-47.893-3.627-85.618-43.629-85.618-92.449v-21.675c0-3.987 3.224-7.211 7.211-7.211h497.577c3.987 0 7.211 3.225 7.211 7.211v13.392h-453.279c-3.986 0-7.211 3.225-7.211 7.212z" fill="#fec165"/><path d="m510.857 376.425c-8.241 10.518-21.057 17.286-35.428 17.286h-195.59l-99.536 51.334-99.536-51.334h-44.196c-14.371 0-27.186-6.768-35.428-17.286 1.277-1.999 3.513-3.317 6.068-3.317h497.577c2.556 0 4.791 1.319 6.069 3.317z" fill="#fec165"/><path d="m478.159 264.094h-372.205c-11.383 0-20.604 9.22-20.604 20.604v39.755h-30.905c-11.383 0-20.604-9.23-20.604-20.604v-39.755c0-11.383 9.22-20.604 20.604-20.604h403.11c11.383.001 20.604 9.221 20.604 20.604z" fill="#d77f4a"/><path d="m478.159 264.001c-.907.062-1.813.093-2.73.093h-58.514c-8.808 0-15.968 7.16-15.968 15.968v44.39h-95.457v-29.381c0-3.595-2.926-6.521-6.521-6.521s-6.521 2.926-6.521 6.521c0 11.085-3.832 21.304-10.24 29.381h-74.966c-6.408-8.077-10.24-18.296-10.24-29.381v-15.01c0-8.808-7.17-15.968-15.968-15.968h-144.463c-.917 0-1.823-.031-2.73-.093.052-11.342 9.251-20.511 20.604-20.511h403.11c11.353.002 20.552 9.17 20.604 20.512z" fill="#d77f4a"/><path d="m12.19 348.731c0 13.465 10.916 24.381 24.381 24.381h49.19l94.539 48.749 94.539-48.749h200.589c13.465 0 24.381-10.916 24.381-24.381 0-13.465-10.916-24.381-24.381-24.381h-438.857c-13.465 0-24.381 10.916-24.381 24.381z" fill="#ffe177"/><g fill="#ffd15b"><path d="m207.93 324.347h73.59c-8.57 10.64-21.71 17.46-36.41 17.46h-.77c-14.7.001-27.84-6.82-36.41-17.46z"/><path d="m43.092 348.734c0 13.465 10.92 24.374 24.384 24.374h-30.905c-13.464 0-24.384-10.909-24.384-24.374s10.92-24.384 24.384-24.384h30.905c-13.464-.001-24.384 10.919-24.384 24.384z"/><path d="m281.52 324.347c-8.57 10.64-21.71 17.46-36.41 17.46h-.77c-14.7 0-27.84-6.82-36.41-17.46z"/><path d="m400.34 324.347v9.55c0 16.33-8.35 30.75-21.01 39.21h-52.23c-12.65-8.46-21-22.88-21-39.21v-9.55z"/></g><path d="m380.343 333.899c0 14.98-12.144 27.124-27.124 27.124-14.98 0-27.124-12.144-27.124-27.124v-38.826c0-14.98-12.144-27.124-27.124-27.124-14.98 0-27.124 12.144-27.124 27.124 0 14.766-11.97 26.735-26.735 26.735h-.777c-14.765 0-26.735-11.97-26.735-26.735v-15.012c0-20.198-16.374-36.571-36.571-36.571h-144.458c-13.465 0-24.381-10.916-24.381-24.381 0-13.465 10.916-24.381 24.381-24.381l12.762-10h415.333l10.762 10c13.465 0 24.381 10.916 24.381 24.381 0 13.465-10.916 24.381-24.381 24.381h-58.514c-20.198 0-36.571 16.374-36.571 36.571z" fill="#fd8087"/><path d="m512 182.528v5.2c0 3.86-3.13 7-7 7h-498c-3.87 0-7-3.14-7-7v-5.2c0-80.55 57.63-147.63 133.91-162.27 10.14-1.95 20.62-2.97 31.33-2.97h181.52c88.73 0 161.13 69.94 165.07 157.7.11 2.499.17 5.009.17 7.54z" fill="#fece85"/><path d="m512 182.528v5.2c0 3.86-3.13 7-7 7h-498c-3.87 0-7-3.14-7-7v-5.2c0-80.55 57.63-147.63 133.91-162.27-11.03 7.23-23.97 17.7-32.54 26.28-30.8 30.81-49.86 73.36-49.86 120.37 0 3.99 3.22 7.21 7.21 7.21h452.76c.02.31.14.6.35.87.11 2.499.17 5.009.17 7.54z" fill="#fec165"/><g><g><g><path d="m256 96.467c-4.267 0-7.726-3.459-7.726-7.726v-20.604c0-4.267 3.459-7.726 7.726-7.726s7.726 3.459 7.726 7.726v20.604c0 4.267-3.459 7.726-7.726 7.726z" fill="#fec165"/></g><g><path d="m148.861 96.467c-4.267 0-7.726-3.459-7.726-7.726v-20.604c0-4.267 3.459-7.726 7.726-7.726s7.726 3.459 7.726 7.726v20.604c.001 4.267-3.459 7.726-7.726 7.726z" fill="#fec165"/></g><g><g><path d="m309.569 153.127c-4.267 0-7.726-3.459-7.726-7.726v-20.604c0-4.267 3.459-7.726 7.726-7.726s7.726 3.459 7.726 7.726v20.604c.001 4.267-3.458 7.726-7.726 7.726z" fill="#fec165"/></g><g><path d="m202.431 153.127c-4.267 0-7.726-3.459-7.726-7.726v-20.604c0-4.267 3.459-7.726 7.726-7.726s7.726 3.459 7.726 7.726v20.604c0 4.267-3.459 7.726-7.726 7.726z" fill="#fec165"/></g></g><g><path d="m363.139 96.467c-4.267 0-7.726-3.459-7.726-7.726v-20.604c0-4.267 3.459-7.726 7.726-7.726s7.726 3.459 7.726 7.726v20.604c0 4.267-3.459 7.726-7.726 7.726z" fill="#fec165"/></g></g></g><path d="m39.93 201.871c-4.409 4.409-7.139 10.508-7.139 17.235 0 13.465 10.92 24.384 24.384 24.384h-20.604c-13.464 0-24.384-10.92-24.384-24.384 0-6.727 2.73-12.826 7.139-17.235 4.419-4.409 10.508-7.139 17.245-7.139h20.604c-6.737 0-12.826 2.73-17.245 7.139z" fill="#fe646f"/></g></svg>