<svg id="Capa_1" enable-background="new 0 0 512 512" height="512" viewBox="0 0 512 512" width="512" xmlns="http://www.w3.org/2000/svg"><g><path d="m481.6 191.47v129.06c0 7.3-.87 14.39-2.52 21.18-9.52 39.48-45.08 68.82-87.48 68.82h-271.2c-49.7 0-90-40.3-90-90v-129.06c0-49.7 40.3-90 90-90h271.2c42.4 0 77.96 29.34 87.48 68.82 1.65 6.79 2.52 13.88 2.52 21.18z" fill="#fece85"/><path d="m481.6 191.47v129.06c0 7.3-.87 14.39-2.52 21.18-12.94 6.52-27.54 10.19-42.98 10.19h-324.636c-12.546 0-19.531 14.472-11.76 24.322 16.482 20.892 42.022 34.308 70.697 34.308h-50c-49.706 0-90-40.294-90-90v-129.06c0-49.706 40.294-90 90-90h50c-28.674 0-54.215 13.416-70.697 34.308-7.771 9.85-.786 24.322 11.76 24.322h324.636c15.44 0 30.04 3.67 42.98 10.19 1.65 6.79 2.52 13.88 2.52 21.18z" fill="#fec165"/><path d="m436.103 331.897h-360.206c-41.917 0-75.897-33.98-75.897-75.897 0-41.917 33.98-75.897 75.897-75.897h360.206c41.917 0 75.897 33.98 75.897 75.897 0 41.917-33.98 75.897-75.897 75.897z" fill="#fd8087"/><path d="m125.9 331.9h-50c-41.92 0-75.9-33.98-75.9-75.9 0-20.96 8.5-39.94 22.23-53.67s32.71-22.23 53.67-22.23h50c-20.96 0-39.94 8.5-53.67 22.23s-22.23 32.71-22.23 53.67c0 41.92 33.98 75.9 75.9 75.9z" fill="#fe646f"/><g><path d="m297.377 285.371c-11.629 0-23.257-3.623-32.963-10.871-.023-.017-.126-.094-.148-.111-4.818-3.597-11.637-3.602-16.528.035-.015.012-.03.023-.044.033-19.43 14.535-46.57 14.536-66.002.002-4.879-3.65-11.688-3.663-16.58-.041-.019.014-.038.028-.056.042-19.43 14.532-46.568 14.532-65.998 0l-8.282-6.195c-8.992 5.838-21.099 3.804-27.654-4.887-6.851-9.086-5.04-22.005 4.045-28.856l.092-.069c13.757-10.431 33.08-10.493 46.947-.121l9.533 7.131c4.878 3.648 11.687 3.661 16.58.04.019-.014.038-.028.056-.042 19.43-14.532 46.568-14.532 65.998 0 4.893 3.66 11.725 3.663 16.621.012.01-.008.019-.015.028-.021 19.413-14.523 46.538-14.536 65.966-.029.023.017.126.094.148.111 4.827 3.604 11.665 3.602 16.558-.058.026-.02.053-.04.081-.06 19.424-14.487 46.526-14.473 65.938.045 4.895 3.662 11.738 3.665 16.636.002l9.522-7.122c13.88-10.382 33.213-10.311 47.018.173 9.061 6.882 10.828 19.807 3.946 28.869-6.548 8.623-18.57 10.639-27.525 4.886l-8.279 6.192c-19.429 14.532-46.567 14.532-65.998 0-4.899-3.664-11.741-3.665-16.637-.002-.03.023-.061.045-.092.068-9.697 7.229-21.312 10.844-32.927 10.844z" fill="#ffe177"/></g></g></svg>