<svg id="Capa_1" enable-background="new 0 0 512 512" height="512" viewBox="0 0 512 512" width="512" xmlns="http://www.w3.org/2000/svg"><g><path d="m170.215 289h-57.2v-200c0-3.866 3.134-7 7-7h50.2z" fill="#fef0ae"/><path d="m150.015 82c-3.87 0-7 3.13-7 7v200h-30v-200c0-3.87 3.13-7 7-7z" fill="#ffe177"/><path d="m227.415 289h-57.2v-282c0-3.866 3.134-7 7-7h43.2c3.866 0 7 3.134 7 7z" fill="#fef0ae"/><path d="m207.215 0c-3.87 0-7 3.13-7 7v282h-30v-282c0-3.87 3.13-7 7-7z" fill="#ffe177"/><path d="m227.415 41.457h57.2v247.543h-57.2z" fill="#fef0ae"/><path d="m227.415 41.46h30v247.54h-30z" fill="#ffe177"/><path d="m341.815 289h-57.2v-282c0-3.866 3.134-7 7-7h43.2c3.866 0 7 3.134 7 7z" fill="#fef0ae"/><path d="m321.615 0c-3.87 0-7 3.13-7 7v282h-30v-282c0-3.87 3.13-7 7-7z" fill="#ffe177"/><path d="m399.015 289h-57.2v-175.089h50.2c3.866 0 7 3.134 7 7z" fill="#fef0ae"/><path d="m341.815 113.91h30v175.09h-30z" fill="#ffe177"/><path d="m466.198 187.82-14.109 147.18-10.7 7.97-8.13 85.26 9.47 4.77-4.86 50.98c-1.52 15.91-14.9 28.04-30.87 28l-290.461.02h-13.12c-15.97-.04-29.29-12.23-30.73-28.14l-4.54-50.86 9.58-3.97-7.93-87.53-10.52-6.5-13.48-148.2c-.37-4.1 2.86-7.64 6.99-7.63l33.62.08 26.55.07-.14 56.1c-.04 17.09 13.78 30.97 30.86 31.01l224.25.54c17.09.04 30.97-13.77 31.01-30.86l.13-56.1 60.18.14c4.12.01 7.341 3.57 6.95 7.67z" fill="#eaf6ff"/><path d="m116.538 512h-13.12c-15.97-.04-29.29-12.23-30.73-28.14l-4.54-50.86 9.58-3.97-7.93-87.53-10.52-6.5-13.48-148.2c-.37-4.1 2.86-7.64 6.99-7.63l33.62.08z" fill="#d8ecfe"/><path d="m442.733 433 9.353-98h-392.808l8.875 98z" fill="#b3dafe"/><path d="m109.388 433-8.875-98h-41.235l8.875 98z" fill="#8ac9fe"/></g></svg>