<svg id="Capa_1" enable-background="new 0 0 512 512" height="512" viewBox="0 0 512 512" width="512" xmlns="http://www.w3.org/2000/svg"><g><path d="m471.496 369.134c-.04.101-.081.202-.121.303-5.234 11.88-18.97 20.483-35.288 20.483l-6.754 10h-326.666l-7.081-10c-20.876 0-37.536-14.099-37.536-31.123 0-.817.04-1.644.121-2.471 2.884-30.739 15.753-59.603 36.367-83.938s48.963-44.152 82.818-56.799c7.312-2.733 14.754-5.113 22.298-7.12 0-.01.01-.01.01-.01 50.566-13.544 105.701-11.164 154.654 7.13 33.855 12.647 62.215 32.464 82.828 56.799s33.482 53.199 36.367 83.938c.423 4.498-.323 8.834-2.017 12.808z" fill="#fec165"/><path d="m446.66 452.254h-376.966c-23.611 0-45.196-13.34-55.755-34.459l-8.831-17.661c-2.347-4.694 1.066-10.217 6.314-10.217h493.509c5.248 0 8.661 5.523 6.314 10.217l-8.831 17.661c-10.558 21.119-32.143 34.459-55.754 34.459z" fill="#cbc4cc"/><path d="m121.639 452.25h-51.947c-23.61 0-45.194-13.34-55.753-34.457l-8.831-17.663c-2.347-4.694 1.066-10.217 6.314-10.217h40.525l13.943 27.885c10.555 21.112 32.145 34.452 55.749 34.452z" fill="#b5adb6"/><path d="m69.103 118.804-1.551 2.687c-3.704 6.416-2.637 14.521 2.601 19.76l39.913 39.913-23.15 23.15-39.913-39.914c-5.239-5.239-13.343-6.306-19.76-2.601l-2.687 1.551c-7.829 4.52-17.841 1.838-22.361-5.992-4.52-7.829-1.838-17.841 5.992-22.361l20.644-11.919 11.919-20.644c4.52-7.829 14.532-10.512 22.361-5.992 7.83 4.521 10.512 14.533 5.992 22.362z" fill="#fef7ed"/><path d="m20.17 149.189c0 2.783.716 5.597 2.198 8.169 1.12 1.926 2.562 3.55 4.226 4.811l-2.037 1.18c-7.826 4.518-17.84 1.835-22.359-5.991-1.482-2.571-2.198-5.385-2.198-8.169 0-5.658 2.935-11.154 8.189-14.19l20.644-11.921 11.92-20.644c4.518-7.826 14.533-10.509 22.359-5.99.676.393 1.311.817 1.906 1.291-1.614 1.24-3.005 2.824-4.095 4.7l-11.92 20.644-20.644 11.921c-5.254 3.035-8.189 8.532-8.189 14.189z" fill="#fff0dc"/><path d="m96.998 194.229-10.085 10.085-39.906-39.917c-.514-.514-1.059-.988-1.634-1.422l2.037-1.18c6.424-3.701 14.522-2.632 19.767 2.602z" fill="#fff0dc"/><path d="m471.496 369.134c-.04.101-.081.202-.121.303-5.234 11.88-18.97 20.483-35.288 20.483h-340.501c-20.876 0-37.536-14.099-37.536-31.123 0-.817.04-1.644.121-2.471 2.884-30.739 15.753-59.603 36.367-83.938s48.963-44.152 82.818-56.799c7.312-2.733 14.754-5.113 22.298-7.12-20.947 11.618-38.908 26.302-53.168 43.144-20.614 24.335-33.492 53.199-36.367 83.928-.081.837-.111 1.654-.111 2.481 0 17.023 16.65 31.112 37.536 31.112z" fill="#fdb441"/><path d="m223.202 321.644c-7.776 7.09-16.943 11.86-26.604 14.311h-.01c-19.746 5.002-41.52.323-57.485-14.079-13.121-11.83-20.019-27.774-20.695-43.941-.797-19.091-8.653-37.204-22.167-50.718l-21.491-21.491c-5.073-5.073-7.604-11.719-7.604-18.365 0-6.656 2.531-13.292 7.604-18.365 9.187-9.198 23.559-10.055 33.724-2.582.071.061.151.121.222.172.968.726 1.896 1.523 2.783 2.41l21.491 21.491c13.615 13.615 31.909 21.249 51.151 22.187 14.996.726 29.771 6.818 41.228 18.274 25.173 25.173 24.457 66.441-2.147 90.696z" fill="#fece85"/><path d="m196.588 335.954c-19.746 5.002-41.52.323-57.485-14.079-13.121-11.83-20.019-27.774-20.695-43.941-.797-19.091-8.653-37.204-22.167-50.718l-21.491-21.49c-5.073-5.073-7.604-11.719-7.604-18.365 0-6.656 2.531-13.292 7.604-18.365 9.187-9.198 23.559-10.055 33.724-2.582.071.061.151.121.222.172-.968.716-1.906 1.523-2.783 2.41-5.073 5.063-7.604 11.719-7.604 18.365 0 6.636 2.531 13.292 7.604 18.365l21.491 21.501c13.514 13.504 21.37 31.627 22.177 50.708.666 16.166 7.574 32.101 20.695 43.951 7.705 6.948 16.761 11.638 26.312 14.068z" fill="#fec165"/><path d="m425.74 319.482v.01c0 14.342-11.627 25.969-25.969 25.969h-60.258c-34.531 0-56.658-29.297-56.658-57.334 0-16.969 8.112-33.485 26.488-42.763 4.23-2.136 9.345.398 10.15 5.068.616 3.573 1.598 7.021 2.905 10.304v.01c7.634 19.202 26.373 32.766 48.277 32.766h29.095c14.343.001 25.97 11.627 25.97 25.97z" fill="#fece85"/><g><g><path d="m274.815 171.65c-3.049 0-5.943-1.8-7.192-4.789-8.488-20.311-3.598-31.605.331-40.68 3.602-8.319 6.204-14.329-.253-28.749-1.759-3.927-.001-8.537 3.926-10.296 3.928-1.759 8.537-.001 10.296 3.927 9.262 20.684 4.31 32.12.332 41.31-3.456 7.981-6.185 14.285-.254 28.479 1.66 3.971-.214 8.535-4.185 10.194-.981.41-1.999.604-3.001.604z" fill="#cbc4cc"/></g><g><path d="m194.502 144.943c-3.049 0-5.943-1.8-7.192-4.789-8.488-20.311-3.598-31.605.331-40.68 3.602-8.319 6.204-14.329-.253-28.749-1.759-3.927-.001-8.537 3.926-10.296 3.93-1.758 8.537-.001 10.296 3.927 9.262 20.684 4.31 32.12.332 41.31-3.456 7.981-6.185 14.285-.254 28.479 1.66 3.971-.214 8.535-4.185 10.194-.981.41-1.999.604-3.001.604z" fill="#cbc4cc"/></g><g><path d="m354.045 144.943c-3.049 0-5.943-1.8-7.192-4.789-8.488-20.311-3.598-31.605.331-40.68 3.602-8.319 6.204-14.329-.253-28.749-1.759-3.927-.001-8.537 3.926-10.296 3.928-1.758 8.538-.001 10.296 3.927 9.262 20.684 4.31 32.12.332 41.31-3.456 7.981-6.185 14.285-.254 28.479 1.66 3.971-.214 8.535-4.185 10.194-.981.41-2 .604-3.001.604z" fill="#cbc4cc"/></g></g></g></svg>