<svg id="Capa_1" enable-background="new 0 0 512 512" height="512" viewBox="0 0 512 512" width="512" xmlns="http://www.w3.org/2000/svg"><g><path d="m488.287 316.045v188.944c0 4.052-3.432 7.311-7.471 6.988-50.353-4.025-91.02-48.247-97.737-97.658l-151.928 81.817c-77.116 41.525-171.945-6.871-183.568-93.677l-23.648-246.231c-2.376-43.809 14.473-84.018 43.027-112.665 26.765-26.858 63.816-43.563 104.951-43.563 85.006 0 152.586 71.356 147.968 156.228l-15.81 189 122.684-65.966c27.824-14.957 61.532 5.204 61.532 36.783z" fill="#fece85"/><g fill="#fec165"><path d="m488.287 497.289v7.701c0 4.052-3.432 7.311-7.471 6.988-50.353-4.025-91.02-48.247-97.737-97.658l36.549-19.678c4.216-2.27 9.397.14 10.446 4.812 7.625 33.953 32.112 81.687 58.213 97.835z"/><path d="m118.394 43.562c-28.555 28.647-45.404 68.856-43.028 112.666l23.648 246.232c7.458 55.731 49.22 95.631 98.573 106.062-68.753 14.647-140.026-31.559-150.004-106.062l-23.648-246.232c-2.376-43.809 14.473-84.018 43.027-112.665 26.765-26.858 63.816-43.563 104.951-43.563 8.774 0 17.373.761 25.716 2.222-30.767 5.369-58.179 20.212-79.235 41.34z"/><path d="m471.726 282.738-200.942 110.066c-10.918 5.98-24.102-2.592-23.067-14.997l179.037-98.546c15.43-8.29 32.67-5.791 44.972 3.477z"/></g><g><g><path d="m108.488 179.394c-12.76 0-23.142-10.381-23.142-23.142 0-4.269 3.461-7.731 7.731-7.731s7.731 3.461 7.731 7.731c0 4.235 3.446 7.681 7.681 7.681s7.681-3.446 7.681-7.681c0-4.269 3.461-7.731 7.731-7.731s7.731 3.461 7.731 7.731c-.002 12.761-10.384 23.142-23.144 23.142z" fill="#fec165"/></g></g><g><g><path d="m240.589 225.848c-12.76 0-23.142-10.381-23.142-23.142 0-4.269 3.461-7.731 7.731-7.731 4.269 0 7.731 3.461 7.731 7.731 0 4.236 3.446 7.681 7.681 7.681s7.681-3.446 7.681-7.681c0-4.269 3.461-7.731 7.731-7.731 4.269 0 7.731 3.461 7.731 7.731-.002 12.761-10.383 23.142-23.144 23.142z" fill="#fec165"/></g></g><g><g><path d="m185.542 117.482c-12.76 0-23.142-10.381-23.142-23.142 0-4.269 3.461-7.731 7.731-7.731 4.269 0 7.731 3.461 7.731 7.731 0 4.235 3.446 7.681 7.681 7.681s7.681-3.446 7.681-7.681c0-4.269 3.461-7.731 7.731-7.731 4.269 0 7.731 3.461 7.731 7.731-.002 12.76-10.384 23.142-23.144 23.142z" fill="#fec165"/></g></g><g><g><path d="m135.289 286.04c-12.76 0-23.142-10.381-23.142-23.142 0-4.269 3.461-7.731 7.731-7.731 4.269 0 7.731 3.461 7.731 7.731 0 4.235 3.446 7.681 7.681 7.681s7.681-3.445 7.681-7.681c0-4.269 3.461-7.731 7.731-7.731 4.269 0 7.731 3.461 7.731 7.731-.002 12.761-10.384 23.142-23.144 23.142z" fill="#fec165"/></g></g></g></svg>