<svg id="Capa_1" enable-background="new 0 0 512 512" height="512" viewBox="0 0 512 512" width="512" xmlns="http://www.w3.org/2000/svg"><g><path d="m512 277.845c0 63.068-114.618 70.526-256 70.526s-256-7.458-256-70.526c0-39.404 44.72-74.142 112.753-94.684 6.31-1.901 13.051 5.944 19.742 4.294s13.332-12.793 20.373-14.174c23.653-4.656 49.191-7.757 75.955-9.014 8.932-.422 13.102 10.332 22.281 10.332 5.748 0 16.34-10.888 21.996-10.723 29.082.855 56.835 3.884 82.456 8.705v.01c8.225 1.549 13.185 16.999 20.943 18.909 8.032 1.977 18.844-9.574 26.321-7.237v.01c66.026 20.656 109.18 54.868 109.18 93.572z" fill="#fece85"/><path d="m281.755 348.268c-8.468.072-17.06.103-25.755.103-141.382 0-256-7.458-256-70.526 0-39.404 44.72-74.142 112.753-94.684 12.62-3.801 26.033-7.119 40.115-9.88 23.653-4.656 49.191-7.757 75.955-9.014 8.932-.422 17.997-.639 27.176-.639 5.748 0 11.445.082 17.101.247 2.926.082 5.831.196 8.726.33-.505.021-.999.041-1.494.062-26.764 1.257-52.302 4.358-75.955 9.014-14.083 2.761-27.496 6.078-40.115 9.88-68.033 20.542-112.753 55.279-112.753 94.684 0 59.194 100.958 69.403 230.246 70.423z" fill="#fec165"/><path d="m273.39 164.65c-14.7.86-29 2.29-42.8 4.24l-1.77-4.62c8.94-.42 18-.64 27.18-.64 5.75 0 11.45.08 17.1.25z" fill="#d77f4a"/><path d="m156.07 185.74c-14.28 4.68-27.44 10.01-39.24 15.89-.64-6.14-2-12.29-4.08-18.47 12.62-3.8 26.04-7.12 40.12-9.88 1.29 4.15 2.35 8.3 3.2 12.46z" fill="#d77f4a"/><g><path d="m269.248 264.741c-3.503 7.479-10.92 11.868-18.667 11.868-2.926 0-5.903-.628-8.726-1.947-10.312-4.832-14.752-17.091-9.921-27.403 11.806-25.198 11.806-49.696 0-74.894l-3.111-8.097c8.932-.422 17.997-.639 27.176-.639 5.748 0 11.445.082 17.101.247 13.105 33.522 11.817 67.405-3.852 100.865z" fill="#dc8758"/></g><g><g><path d="m273.39 164.65c-14.7.86-29 2.29-42.8 4.24l-1.77-4.62c8.94-.42 18-.64 27.18-.64 5.75 0 11.45.08 17.1.25.1.26.2.51.29.77z" fill="#d77f4a"/></g></g><g><path d="m145.729 264.741c-3.503 7.479-10.93 11.868-18.677 11.868-2.926 0-5.893-.628-8.726-1.947-10.302-4.832-14.742-17.091-9.91-27.403 10.106-21.582 11.548-42.66 4.337-64.098 12.62-3.801 26.033-7.119 40.115-9.88 9.447 30.453 7.068 61.132-7.139 91.46z" fill="#dc8758"/></g><g><g><path d="m156.07 185.74c-14.28 4.68-27.44 10.01-39.24 15.89-.64-6.14-2-12.29-4.08-18.47 12.62-3.8 26.04-7.12 40.12-9.88 1.29 4.15 2.35 8.3 3.2 12.46z" fill="#d77f4a"/></g></g><g><path d="m392.767 264.741c-3.503 7.479-10.92 11.868-18.667 11.868-2.926 0-5.903-.628-8.726-1.947-10.302-4.832-14.742-17.091-9.921-27.403 11.775-25.126 11.806-49.541.103-74.668 16.74 3.152 32.564 7.077 47.265 11.672v.01c5.8 26.827 2.452 53.786-10.054 80.468z" fill="#dc8758"/></g></g></svg>