<svg id="Capa_1" enable-background="new 0 0 512 512" height="512" viewBox="0 0 512 512" width="512" xmlns="http://www.w3.org/2000/svg"><g><path d="m57.46 136.221 8.451 36.901 91.161 182.322 29.928 37.556 15.76 53.812 23.365 46.729c12.311 24.611 47.44 24.611 59.751 0l42.289-84.578 14.502-53.963 31.557-38.156 71.866-143.721 8.451-36.901-198.541-52.787z" fill="#fef0ae"/><path d="m277.634 493.542c1.174 2.349 2.565 4.481 4.121 6.387-14.701 17.997-44.494 15.865-55.63-6.387l-23.365-46.729-15.76-53.813-29.929-37.555-91.161-182.322-18.451-36.901-23.107-46.225c-7.798-15.597-1.123-34.47 14.66-41.867 65.891-30.874 139.425-48.13 216.988-48.13 8.633 0 17.225.216 25.755.639-68.085 3.368-132.678 20.058-191.234 47.491-15.782 7.397-22.458 26.27-14.66 41.867l23.107 46.224 18.451 36.901 91.161 182.322 45.689 91.367z" fill="#ffe177"/><path d="m141.67 221.63c-6.04-.05-12.33-1.86-18.18-5.44-2.08-9.02-.87-17.81 3.12-24.69z" fill="#ffe177"/><path d="m235.98 410.25c-4.12 17.1-16.79 30.87-33.22 36.56l-45.69-91.36c8.23-5.58 18.15-8.83 28.84-8.83 7.23 0 14.1 1.49 20.34 4.17l2.33 4.66z" fill="#fe646f"/><path d="m464.541 136.222-18.451 36.901c-57.402-32.317-122.427-49.5-190.09-49.5s-132.688 17.183-190.09 49.5l-18.451-36.901c63.068-35.13 134.368-53.807 208.541-53.807s145.473 18.677 208.541 53.807z" fill="#fec165"/><path d="m107.344 152.972c-14.186 5.862-28.021 12.589-41.434 20.15l-18.451-36.901c13.444-7.489 27.269-14.237 41.413-20.202l10.096 20.202z" fill="#ffe177"/><path d="m107.344 152.972c-14.186 5.862-28.021 12.589-41.434 20.15l-18.451-36.901c13.444-7.489 27.269-14.237 41.413-20.202l10.096 20.202z" fill="#fdb441"/><path d="m487.648 89.997-23.107 46.224c-63.068-35.129-134.368-53.806-208.541-53.806s-145.473 18.677-208.541 53.807l-23.107-46.225c-7.798-15.597-1.123-34.47 14.66-41.867 65.891-30.874 139.425-48.13 216.988-48.13s151.097 17.256 216.988 48.13c15.783 7.397 22.458 26.27 14.66 41.867z" fill="#fece85"/><path d="m75.862 89.997 13.011 26.023c-14.144 5.965-27.97 12.712-41.413 20.202l-23.108-46.225c-7.798-15.597-1.123-34.47 14.66-41.867 65.891-30.874 139.425-48.13 216.988-48.13 8.623 0 17.204.216 25.724.639-68.075 3.368-132.657 20.058-191.203 47.491-15.782 7.397-22.458 26.27-14.659 41.867z" fill="#fec165"/><path d="m237.415 398.126c0 22.541-14.484 41.702-34.655 48.687l-45.689-91.367c8.231-5.573 18.152-8.829 28.835-8.829 28.454-.001 51.509 23.055 51.509 51.509z" fill="#fd8087"/><path d="m235.98 410.25c-4.12 17.1-16.79 30.87-33.22 36.56l-45.69-91.36c8.23-5.58 18.15-8.83 28.84-8.83 7.23 0 14.1 1.49 20.34 4.17l2.33 4.66z" fill="#fe646f"/><path d="m374.224 316.844-46.06 92.119c-17.585-8.19-29.772-26.022-29.772-46.709 0-28.443 23.056-51.509 51.509-51.509 8.798 0 17.081 2.205 24.323 6.099z" fill="#fd8087"/><path d="m360.282 239.324c-12.627-5.308-20.604-16.157-20.604-28.025v-5.76c0-11.868 7.976-22.718 20.604-28.025 12.627 5.308 20.604 16.157 20.604 28.025v5.76c0 11.868-7.976 22.718-20.604 28.025z" fill="#57be92"/><circle cx="252.253" cy="259.928" fill="#fd8087" r="51.509"/><path d="m267.713 309.077c-4.883 1.535-10.075 2.359-15.463 2.359-28.443 0-51.509-23.056-51.509-51.509 0-28.444 23.066-51.509 51.509-51.509 5.388 0 10.58.824 15.463 2.359-20.902 6.562-36.067 26.084-36.067 49.15 0 23.065 15.165 42.587 36.067 49.15z" fill="#fe646f"/><path d="m123.491 216.194c-3.081-13.347 1.054-26.162 10.68-33.104l4.672-3.369c9.626-6.942 23.092-6.818 34.783.319 3.081 13.346-1.054 26.162-10.68 33.104l-4.672 3.369c-9.627 6.942-23.092 6.818-34.783-.319z" fill="#57be92"/><path d="m141.67 221.63c-6.04-.05-12.33-1.86-18.18-5.44-2.08-9.02-.87-17.81 3.12-24.69z" fill="#22b27f"/></g></svg>