<svg id="Capa_1" enable-background="new 0 0 512 512" height="512" viewBox="0 0 512 512" width="512" xmlns="http://www.w3.org/2000/svg"><g><path d="m510.45 261.47-17.6 48.38-445.03 4.81-30.8.33-14.27-45.31c-4.26-14.09-.31-29.38 10.25-39.65l24.76-24.07c5.1-4.96 8.76-11.2 10.6-18.07l8.75-32.78c3.63-13.59 14.23-24.2 27.8-27.86l36.92-9.95c6.47-1.75 12.39-5.12 17.2-9.79l26.94-26.2c9.64-9.36 23.38-13.17 36.46-10.1l7.38 1.73h.01l31.24 7.34c6.34 1.49 12.96 1.38 19.25-.31l38.31-10.33c12.97-3.5 26.83-.14 36.77 8.9l27.79 25.3c4.95 4.52 10.98 7.69 17.51 9.22l37.22 8.74c13.68 3.22 24.62 13.48 28.69 26.94l9.83 32.48c2.06 6.8 5.92 12.93 11.18 17.71l31.31 23.26c10.89 9.91 15.33 25.06 11.53 39.28z" fill="#57be92"/><path d="m234.19 172.23c0 45.51-37.03 82.53-82.55 82.53-35.85 0-66.43-22.98-77.8-54.99-1.51 2.23-3.24 4.3-5.18 6.19l-24.76 24.07c-10.55 10.27-14.51 25.56-10.24 39.65l14.16 44.98-30.8.33-14.27-45.31c-4.26-14.09-.31-29.38 10.25-39.65l24.76-24.07c5.1-4.96 8.76-11.2 10.6-18.07l8.75-32.78c3.63-13.59 14.23-24.2 27.8-27.86l36.92-9.95c6.47-1.75 12.39-5.12 17.2-9.79l26.94-26.2c9.64-9.36 23.38-13.17 36.46-10.1l7.38 1.73c-4.75 1.88-9.15 4.7-12.93 8.37l-14.66 14.26c30.42 12.17 51.97 41.94 51.97 76.66z" fill="#22b27f"/><path d="m427.556 165.88c0 45.513-37.035 82.538-82.549 82.538-45.513 0-82.538-37.025-82.538-82.538 0-44.102 34.748-80.231 78.294-82.445l22.417 20.408c4.955 4.512 10.982 7.685 17.513 9.22l33.522 7.87c8.437 12.94 13.341 28.382 13.341 44.947z" fill="#22b27f"/><circle cx="151.644" cy="172.222" fill="#fd8087" r="61.942"/><path d="m167.095 232.224c-4.945 1.267-10.116 1.937-15.453 1.937-34.212 0-61.945-27.733-61.945-61.934 0-34.212 27.732-61.945 61.945-61.945 5.336 0 10.508.67 15.453 1.937-26.733 6.871-46.492 31.132-46.492 60.008 0 28.865 19.759 53.126 46.492 59.997z" fill="#fe646f"/><circle cx="345.01" cy="165.876" fill="#fd8087" r="61.942"/><path d="m360.46 225.878c-4.945 1.267-10.116 1.937-15.453 1.937-34.202 0-61.934-27.732-61.934-61.934 0-34.212 27.732-61.945 61.934-61.945 5.337 0 10.508.67 15.453 1.937-26.733 6.871-46.482 31.132-46.482 60.008.001 28.865 19.749 53.126 46.482 59.997z" fill="#fe646f"/><path d="m472.895 443.718h-433.79c-21.597 0-39.105-17.508-39.105-39.105v-8.14c0-127.355 103.241-230.596 230.596-230.596h50.807c127.356-.001 230.597 103.241 230.597 230.595v8.14c0 21.598-17.508 39.106-39.105 39.106z" fill="#fef0ae"/><path d="m50 396.47v8.14c0 21.6 17.51 39.11 39.11 39.11h-50c-21.6 0-39.11-17.51-39.11-39.11v-8.14c0-127.35 103.24-230.59 230.6-230.59h50c-127.36 0-230.6 103.24-230.6 230.59z" fill="#ffe177"/><g><g><path d="m83.393 389.34c-4.268 0-7.726-3.459-7.726-7.726s3.459-7.726 7.726-7.726c7.101 0 12.877-5.777 12.877-12.877 0-7.101-5.777-12.877-12.877-12.877-4.268 0-7.726-3.459-7.726-7.726s3.459-7.726 7.726-7.726c15.621 0 28.33 12.709 28.33 28.33 0 15.619-12.709 28.328-28.33 28.328z" fill="#ffe177"/></g><g><path d="m258.125 389.34c-4.268 0-7.726-3.459-7.726-7.726s3.459-7.726 7.726-7.726c7.101 0 12.877-5.777 12.877-12.877 0-7.101-5.777-12.877-12.877-12.877-4.268 0-7.726-3.459-7.726-7.726s3.459-7.726 7.726-7.726c15.621 0 28.33 12.709 28.33 28.33 0 15.619-12.71 28.328-28.33 28.328z" fill="#ffe177"/></g><g><path d="m171.748 289.958c-4.268 0-7.726-3.459-7.726-7.726s3.459-7.726 7.726-7.726c7.101 0 12.877-5.777 12.877-12.877 0-7.101-5.777-12.877-12.877-12.877-4.268 0-7.726-3.459-7.726-7.726s3.459-7.726 7.726-7.726c15.621 0 28.33 12.709 28.33 28.33s-12.709 28.328-28.33 28.328z" fill="#ffe177"/></g><g><path d="m345.01 321.532c-4.268 0-7.726-3.459-7.726-7.726s3.459-7.726 7.726-7.726c7.101 0 12.877-5.777 12.877-12.877 0-7.101-5.777-12.877-12.877-12.877-4.268 0-7.726-3.459-7.726-7.726s3.459-7.726 7.726-7.726c15.621 0 28.33 12.709 28.33 28.33 0 15.619-12.709 28.328-28.33 28.328z" fill="#ffe177"/></g><g fill="#ffe177"><path d="m183.981 365.486c-4.267 0-7.726-3.459-7.726-7.726 0-4.267 3.459-7.726 7.726-7.726 4.267 0 7.726 3.459 7.726 7.726 0 4.267-3.459 7.726-7.726 7.726z"/><path d="m357.888 389.34c-4.267 0-7.726-3.459-7.726-7.726 0-4.267 3.459-7.726 7.726-7.726 4.267 0 7.726 3.459 7.726 7.726 0 4.267-3.459 7.726-7.726 7.726z"/><path d="m275.667 260.049c-4.267 0-7.726-3.459-7.726-7.726 0-4.267 3.459-7.726 7.726-7.726 4.267 0 7.726 3.459 7.726 7.726.001 4.267-3.459 7.726-7.726 7.726z"/><path d="m428.607 329.258c-4.267 0-7.726-3.459-7.726-7.726 0-4.267 3.459-7.726 7.726-7.726 4.267 0 7.726 3.459 7.726 7.726 0 4.267-3.459 7.726-7.726 7.726z"/></g></g></g></svg>