<svg id="Capa_1" enable-background="new 0 0 512 512" height="512" viewBox="0 0 512 512" width="512" xmlns="http://www.w3.org/2000/svg"><g><path d="m419.459 235.078v25.219c0 37.725-30.586 68.311-68.322 68.311l-7.137 10h-174l-8.972-10c-37.725 0-68.311-30.586-68.311-68.311v-37.918c.021-61.1 49.727-110.796 110.827-110.796h104.914c61.11 0 110.827 49.717 110.827 110.827-.001.907.061 11.793.174 12.668z" fill="#fef7ed"/><path d="m92.552 431.624h-47.81c-3.866 0-7-3.134-7-7v-64.811h61.811v64.811c-.001 3.866-3.135 7-7.001 7z" fill="#fece85"/><path d="m467.258 431.624h-47.811c-3.866 0-7-3.134-7-7v-64.811h61.811v64.811c0 3.866-3.134 7-7 7z" fill="#fece85"/><g><g fill="#fec165"><path d="m74.74 431.62h-30c-3.86 0-7-3.13-7-7v-54.81h30v54.81c0 3.87 3.14 7 7 7z"/><path d="m449.45 431.62h-30c-3.87 0-7-3.13-7-7v-54.81h30v54.81c0 3.87 3.13 7 7 7z"/></g></g><path d="m212.537 328.608h-51.509c-37.725 0-68.311-30.586-68.311-68.311v-27.918c.021-61.1 49.727-110.796 110.827-110.796h51.509c-61.1 0-110.806 49.696-110.827 110.796v27.918c-.001 37.725 30.585 68.311 68.311 68.311z" fill="#fff0dc"/><g><path d="m460.491 232.41c0 11.384-9.22 20.604-20.604 20.604s-20.604-9.22-20.604-20.604c0-13.959-2.596-27.32-7.325-39.631-1.865-4.862-4.059-9.55-6.562-14.041-8.324-14.969-20.006-27.825-34.027-37.519-4.224-2.936-8.653-5.573-13.279-7.891-14.938-7.51-31.802-11.744-49.634-11.744h-104.913c-17.451 0-33.975 4.049-48.676 11.27h-.01c-4.656 2.287-9.127 4.883-13.382 7.768-14.124 9.601-25.94 22.365-34.398 37.262-2.534 4.461-4.77 9.127-6.676 13.949-4.955 12.568-7.685 26.259-7.685 40.579 0 11.384-9.22 20.604-20.604 20.604s-20.604-9.22-20.604-20.604c0-22.139 4.759-43.185 13.31-62.171l7.057-13.784c11.198-19.337 26.537-35.995 44.792-48.738 4.224-2.957 8.602-5.707 13.125-8.221 21.86-12.177 47.007-19.12 73.751-19.12h104.914c27.104 0 52.591 7.139 74.657 19.625 4.502 2.555 8.87 5.326 13.073 8.314 18.152 12.867 33.367 29.607 44.432 49.016 2.555 4.471 4.883 9.076 6.964 13.804 8.303 18.757 12.908 39.485 12.908 61.273z" fill="#fd8087"/></g><path d="m215.823 80.378h80.354v258.228h-80.354z" fill="#57be92"/><path d="m215.823 80.376h41.207v248.232h-41.207z" fill="#22b27f"/><g><g><path d="m154.857 132.853c-4.656 2.287-9.127 4.883-13.382 7.768l-24.529-32.513c-.093-.124-.185-.258-.278-.391 4.224-2.957 8.602-5.707 13.125-8.221l24.426 32.358c.246.319.452.659.638.999z" fill="#fe646f"/></g><g><path d="m107.077 177.882c-2.534 4.461-4.77 9.127-6.676 13.949-.319-.144-.618-.299-.917-.484l-34.666-21.108 7.057-13.784c.103.062.216.124.319.185z" fill="#fe646f"/></g><g><path d="m396.187 108.314c-.041.072-.093.144-.144.206l-24.673 32.698c-4.224-2.936-8.653-5.573-13.279-7.891.196-.361.412-.711.67-1.051l24.353-32.276c4.502 2.556 8.87 5.327 13.073 8.314z" fill="#fe646f"/></g><g><path d="m447.583 171.135-34.882 21.253c-.247.144-.494.278-.742.391-1.865-4.862-4.059-9.55-6.562-14.041l34.593-21.067c.206-.124.412-.237.628-.34 2.556 4.47 4.884 9.075 6.965 13.804z" fill="#fe646f"/></g></g><path d="m505 369.813h-498c-3.866 0-7-3.134-7-7v-27.207c0-3.866 3.134-7 7-7h498c3.866 0 7 3.134 7 7v27.207c0 3.866-3.134 7-7 7z" fill="#fece85"/><path d="m505 369.813h-498c-3.866 0-7-3.134-7-7v-27.207c0-3.866 3.134-7 7-7h498c3.866 0 7 3.134 7 7v27.207c0 3.866-3.134 7-7 7z" fill="#fece85"/><path d="m57 369.81h-50c-3.87 0-7-3.13-7-7v-27.2c0-3.87 3.13-7 7-7h50c-3.87 0-7 3.13-7 7v27.2c0 3.87 3.13 7 7 7z" fill="#fec165"/></g></svg>