<svg id="Capa_1" enable-background="new 0 0 512 512" height="512" viewBox="0 0 512 512" width="512" xmlns="http://www.w3.org/2000/svg"><g><path d="m367.333 7v209.136h-222.668v-209.136c0-3.866 3.134-7 7-7h208.668c3.866 0 7 3.134 7 7z" fill="#dc8758"/><path d="m367.333 185.13v21.006h-222.668v-199.136c0-3.866 3.134-7 7-7h45.516v153.62c0 17.402 14.107 31.51 31.51 31.51z" fill="#d77f4a"/><path d="m367.33 95.19v15.76h-103.45v95.19h-15.76v-95.19h-103.45v-15.76h103.45v-95.19h15.76v95.19z" fill="#fece85"/><path d="m382.035 366.44v137.58c0 6.35-7.67 9.53-12.16 5.04l-3.59-3.59c-8.7-8.7-22.81-8.7-31.51 0-4.35 4.35-10.05 6.53-15.75 6.53-5.71 0-11.41-2.18-15.76-6.53s-10.05-6.53-15.76-6.53c-5.7 0-11.4 2.18-15.75 6.53s-10.05 6.53-15.75 6.53c-5.71 0-11.41-2.18-15.76-6.53s-10.05-6.53-15.76-6.53c-5.7 0-11.4 2.18-15.75 6.53s-10.05 6.53-15.75 6.53c-5.71 0-11.41-2.18-15.76-6.53s-10.05-6.53-15.76-6.53c-5.7 0-11.4 2.18-15.75 6.53l-3.59 3.59c-4.49 4.49-12.16 1.31-12.16-5.04v-212.85l10.397-6.896 231.65 69.172z" fill="#fd8087"/><path d="m382.035 366.44v10l-252.07-75.27v-10l10.4-6.9 231.65 69.18z" fill="#fe646f"/><path d="m379.815 509.21c-1.28 1.19-2.97 1.89-4.72 1.94 1.63-.45 3.21-1.1 4.72-1.94z" fill="#fd8087"/><path d="m182.175 509.2c1.51.85 3.1 1.5 4.73 1.95-1.75-.05-3.45-.75-4.73-1.95z" fill="#fd8087"/><g fill="#fe646f"><path d="m211.465 498.94c2.2 0 4.4.32 6.52.97-3.39 1.03-6.57 2.88-9.25 5.56-4.35 4.35-10.05 6.53-15.75 6.53-2.05 0-4.1-.28-6.08-.85 1.83.07 3.7-.57 5.22-2.09l3.59-3.59c4.35-4.35 10.05-6.53 15.75-6.53z"/><path d="m274.485 498.94c2.2 0 4.4.32 6.52.97-3.39 1.03-6.57 2.88-9.25 5.56-4.35 4.35-10.05 6.53-15.75 6.53-2.2 0-4.4-.32-6.51-.97 3.38-1.03 6.57-2.89 9.24-5.56 4.35-4.35 10.05-6.53 15.75-6.53z"/><path d="m337.505 498.94c2.2 0 4.4.32 6.52.97-3.39 1.03-6.57 2.88-9.25 5.56-4.35 4.35-10.05 6.53-15.75 6.53-2.2 0-4.4-.32-6.51-.97 3.38-1.03 6.57-2.89 9.24-5.56 4.35-4.35 10.05-6.53 15.75-6.53z"/><path d="m382.035 376.44v-10l-10.02-12.99-231.65-69.18-10.4 6.9v10 202.85c0 6.347 7.674 9.526 12.162 5.038l3.588-3.588c4.35-4.35 10.05-6.53 15.75-6.53 5.71 0 11.41 2.18 15.76 6.53 1.51 1.5 3.18 2.75 4.95 3.73-1.33-1.24-2.21-3.03-2.21-5.18v-167.786c0-10.04 9.672-17.246 19.292-14.373z"/></g><path d="m382.035 213.26v153.18l-252.07-75.27v-77.91c0-3.94 3.19-7.13 7.12-7.13h237.83c3.93 0 7.12 3.19 7.12 7.13z" fill="#eaf6ff"/><path d="m179.965 206.13v99.97l-50-14.93v-77.91c0-3.94 3.19-7.13 7.12-7.13z" fill="#d8ecfe"/><path d="m144.67 95.19h52.51v15.76h-52.51z" fill="#fec165"/><path d="m248.12 185.13h15.76v21.01h-15.76z" fill="#fec165"/></g></svg>