<svg id="Capa_1" enable-background="new 0 0 512 512" height="512" viewBox="0 0 512 512" width="512" xmlns="http://www.w3.org/2000/svg"><g><path d="m128.491 512c-47.588 0-86.304-38.717-86.304-86.305v-183.598c0-25.045 6.296-49.108 18.14-70.394-11.677-17.808-18.14-38.859-18.14-60.802 0-61.151 49.75-110.901 110.901-110.901h205.825c61.151 0 110.901 49.75 110.901 110.901 0 21.943-6.463 42.994-18.14 60.802 11.844 21.286 18.14 45.35 18.14 70.394v183.598c0 47.588-38.717 86.305-86.305 86.305z" fill="#dc8758"/><path d="m128.491 470.793c-24.867 0-45.098-20.231-45.098-45.098v-183.598c0-17.729 4.475-35.143 12.941-50.358l12.122-21.784-13.67-20.848c-7.453-11.366-11.392-24.578-11.392-38.207 0-38.429 31.265-69.694 69.694-69.694h205.825c38.43 0 69.694 31.265 69.694 69.694 0 13.628-3.94 26.84-11.393 38.207l-13.67 20.848 12.122 21.784c8.467 15.216 12.942 32.629 12.942 50.358v183.598c0 24.867-20.23 45.098-45.098 45.098z" fill="#fece85"/><path d="m180.004 470.793h-51.509c-24.868 0-45.101-20.233-45.101-45.101v-183.599c0-17.729 4.471-35.139 12.939-50.355l12.125-21.778-13.671-20.851c-7.459-11.363-11.394-24.58-11.394-38.209 0-38.426 31.266-69.692 69.692-69.692h51.509c-38.426 0-69.692 31.266-69.692 69.692 0 13.629 3.935 26.847 11.394 38.209l13.671 20.851-12.125 21.778c-8.468 15.216-12.939 32.626-12.939 50.355v183.599c-.001 24.868 20.232 45.101 45.101 45.101z" fill="#fec165"/><path d="m149.098 512h-20.604c-47.594 0-86.309-38.714-86.309-86.309v-183.598c0-25.044 6.295-49.098 18.142-70.392-11.682-17.801-18.142-38.858-18.142-60.801.001-61.153 49.749-110.9 110.9-110.9h20.604c-61.152 0-110.899 49.747-110.899 110.899 0 21.943 6.459 43 18.142 60.801-11.847 21.294-18.142 45.349-18.142 70.392v183.599c0 47.595 38.714 86.309 86.308 86.309z" fill="#d77f4a"/><g><g><path d="m209.638 161.803c-3.352 0-6.44-2.199-7.418-5.581-1.186-4.099 1.175-8.383 5.275-9.569l29.688-8.59c4.095-1.183 8.383 1.176 9.568 5.275 1.186 4.099-1.175 8.383-5.275 9.569l-29.688 8.59c-.715.207-1.439.306-2.15.306z" fill="#dc8758"/></g><g><path d="m241.152 271.438c-3.352 0-6.44-2.199-7.418-5.581-1.186-4.099 1.175-8.383 5.274-9.569l29.688-8.59c4.1-1.184 8.384 1.175 9.569 5.275 1.186 4.099-1.175 8.383-5.274 9.569l-29.688 8.59c-.716.207-1.44.306-2.151.306z" fill="#dc8758"/></g><g><path d="m320.11 381.303c-1.411 0-2.84-.386-4.121-1.196l-26.124-16.512c-3.608-2.28-4.683-7.052-2.403-10.659 2.28-3.608 7.053-4.683 10.659-2.403l26.124 16.512c3.608 2.28 4.683 7.052 2.403 10.659-1.47 2.326-3.977 3.599-6.538 3.599z" fill="#dc8758"/></g><g><path d="m331.576 186.377c-2.263 0-4.505-.989-6.031-2.891l-19.343-24.103c-2.67-3.328-2.138-8.191 1.19-10.862 3.329-2.672 8.191-2.138 10.862 1.19l19.343 24.103c2.67 3.328 2.138 8.191-1.19 10.862-1.427 1.145-3.135 1.701-4.831 1.701z" fill="#dc8758"/></g><g><path d="m204.475 397.15c-2.263 0-4.504-.989-6.031-2.891l-19.344-24.103c-2.67-3.328-2.138-8.191 1.19-10.862 3.329-2.672 8.191-2.138 10.862 1.19l19.344 24.103c2.67 3.328 2.138 8.191-1.19 10.862-1.426 1.145-3.135 1.701-4.831 1.701z" fill="#dc8758"/></g><g><path d="m154.756 278.312c-.847 0-1.709-.14-2.554-.436-4.027-1.411-6.148-5.819-4.737-9.846l10.216-29.168c1.41-4.027 5.818-6.147 9.846-4.738 4.027 1.411 6.148 5.819 4.737 9.846l-10.216 29.168c-1.115 3.182-4.101 5.174-7.292 5.174z" fill="#dc8758"/></g><g><path d="m363.677 311.288c-.847 0-1.709-.14-2.554-.436-4.027-1.411-6.148-5.819-4.737-9.846l10.216-29.168c1.411-4.027 5.82-6.148 9.846-4.738 4.027 1.411 6.148 5.819 4.737 9.846l-10.216 29.168c-1.115 3.182-4.1 5.174-7.292 5.174z" fill="#dc8758"/></g></g></g></svg>