<svg id="Capa_1" enable-background="new 0 0 512 512" height="512" viewBox="0 0 512 512" width="512" xmlns="http://www.w3.org/2000/svg"><g><path d="m366.655 512h-28.702l-4.703-10h-46.5l-4.333 10h-52.835l-4.892-10h-46.19l-4.453 10h-28.702c-15.745 0-28.964-11.855-30.671-27.507l-27.853-255.315 8.846-10h317.333l12.179 10-27.852 255.314c-1.708 15.653-14.927 27.508-30.672 27.508z" fill="#fd8087"/><path d="m425.179 229.178-2.242 20.569h-277.772c-9.184 0-16.332 7.97-15.344 17.103l25.989 238.208c.267 2.417.802 4.741 1.584 6.942h-12.044c-15.745 0-28.971-11.858-30.678-27.511l-27.85-255.311h65.285l4.893 5h63.333l4.45-5h62.434l7.116 5h59.667l5.893-5z" fill="#fe646f"/><path d="m435.977 158c0 14.984-10.048 27.12-22.461 27.12-.514 0-314.56 0-315.033 0-12.413 0-22.461-12.136-22.461-27.12 0-14.028 8.824-25.577 20.137-26.986-.453-6.798-.761-11.621-.761-12.208 0-22.471 15.077-40.685 33.681-40.685 0-22.482 15.077-40.695 33.682-40.695 4.505 0 8.814 1.09 12.753 3.024 5.245-14.244 17.052-24.179 30.781-24.179 7.127 0 13.73 2.705 19.17 7.251 5.359-13.885 17.021-23.522 30.535-23.522 13.503 0 25.125 9.595 30.504 23.438 5.42-4.505 11.981-7.168 19.067-7.168 13.73 0 25.536 9.935 30.781 24.179 3.939-1.933 8.238-3.024 12.742-3.024 18.604 0 33.681 18.214 33.681 40.695 18.605 0 33.682 18.214 33.682 40.685 0 .586-.309 5.399-.771 12.197 11.395 1.328 20.291 12.887 20.291 26.998z" fill="#fef0ae"/><path d="m435.309 164.551c-2.417 11.817-11.251 20.569-21.793 20.569-.058 0-4.083 10-11.183 10-49.138 0-245.553 0-293.333 0-6.689 0-10.465-10-10.516-10-12.413 0-22.461-12.136-22.461-27.12 0-14.028 8.824-25.577 20.137-26.986-.453-6.798-.761-11.621-.761-12.208 0-22.471 15.077-40.685 33.681-40.685 0-22.482 15.077-40.695 33.682-40.695 4.505 0 8.814 1.09 12.753 3.024 5.245-14.244 17.052-24.179 30.781-24.179 2.036 0 4.031.226 5.965.658-17.71 1.203-31.758 18.923-31.758 40.623-18.605 0-33.682 18.214-33.682 40.685 0 .586.309 5.41.761 12.208-11.313 1.409-20.137 12.958-20.137 26.986 0 14.984 10.048 27.12 22.461 27.12.473 0 .967-.01 1.43-.062l.062.062z" fill="#ffe177"/><path d="m438.728 229.178h-365.456c-11.829 0-21.418-9.589-21.418-21.418v-1.218c0-11.829 9.589-21.418 21.418-21.418h365.457c11.829 0 21.418 9.589 21.418 21.418v1.218c-.001 11.829-9.59 21.418-21.419 21.418z" fill="#eaf6ff"/><g><g><path d="m181.943 151.468c-4.221 0-7.666-3.398-7.711-7.629-.17-15.606 12.389-28.44 27.994-28.61.029-.001.057-.001.085-.001 4.221 0 7.666 3.398 7.711 7.629.046 4.26-3.37 7.75-7.629 7.797-7.1.077-12.813 5.916-12.736 13.016.046 4.26-3.37 7.75-7.629 7.797-.028.001-.057.001-.085.001z" fill="#ffe177"/></g><g><path d="m330.047 154.015c-3.72 0-6.995-2.697-7.606-6.488-.547-3.396-2.383-6.375-5.171-8.39-2.788-2.014-6.19-2.822-9.589-2.275-4.202.682-8.164-2.182-8.842-6.388s2.182-8.164 6.388-8.842c7.462-1.201 14.949.573 21.078 5.001 6.128 4.428 10.164 10.976 11.367 18.44.677 4.206-2.183 8.165-6.389 8.842-.415.068-.828.1-1.236.1z" fill="#ffe177"/></g><g><path d="m244.819 90.956c-1.905 0-3.813-.702-5.305-2.116-3.091-2.931-3.221-7.813-.29-10.904 10.736-11.325 28.686-11.803 40.012-1.066 3.091 2.931 3.221 7.813.291 10.905-2.932 3.091-7.813 3.221-10.905.291-5.153-4.886-13.319-4.667-18.204.484-1.517 1.599-3.556 2.406-5.599 2.406z" fill="#ffe177"/></g></g><path d="m229.583 512-4.8-282.822h-72.676l21.94 282.822z" fill="#eaf6ff"/><path d="m225.136 249.747h-71.435l-1.594-20.569h72.68z" fill="#d8ecfe"/><path d="m282.417 512 4.8-282.822h72.676l-21.94 282.822z" fill="#eaf6ff"/><path d="m359.893 229.178-1.594 20.569h-71.435l.349-20.569z" fill="#d8ecfe"/></g></svg>