<svg id="Capa_1" enable-background="new 0 0 512 512" height="512" viewBox="0 0 512 512" width="512" xmlns="http://www.w3.org/2000/svg"><g><path d="m472.34 210.011c0 8.53-3.46 16.25-9.05 21.85-5.6 5.59-13.33 9.05-21.86 9.05l-7.43 10h-359.875s-4.645-10.01-5.225-10.04c-16.29-.87-29.24-14.36-29.24-30.86 0-8.53 3.46-16.26 9.05-21.86 5.6-5.59 13.33-9.05 21.86-9.05h370.86c8.04 0 15.37 3.07 20.88 8.11 6.16 5.65 10.03 13.78 10.03 22.8z" fill="#fece85"/><path d="m472.34 270.911v1.81c0 16.57-13.43 30-30 30l-8.673 10h-355.667l-8.34-10c-16.57 0-30-13.43-30-30v-1.81c0-16.57 13.43-30 30-30h372.68c16.57 0 30 13.43 30 30z" fill="#dc8758"/><path d="m472.34 332.721v1.81c0 16.57-13.43 30-30 30l-11.007 10h-350.463l-9.4-10c-17.57 0-31.81-14.24-31.81-31.81 0-8.28 3.36-15.78 8.79-21.21s12.93-8.79 21.21-8.79h372.68c16.57 0 30 13.43 30 30z" fill="#fece85"/><path d="m472.34 395.441c0 8.54-3.46 16.26-9.05 21.85-5.6 5.59-13.33 9.05-21.86 9.05l-12.097 10h-348.463l-10.3-10c-17.07 0-30.91-13.83-30.91-30.9 0-8.54 3.46-16.26 9.05-21.86 5.6-5.59 13.33-9.05 21.86-9.05h370.86c17.07 0 30.91 13.84 30.91 30.91z" fill="#dc8758"/><g><path d="m256 61.833c-4.267 0-7.726-3.459-7.726-7.726v-22.88c0-15.432 12.555-27.987 27.987-27.987 4.268 0 7.726 3.459 7.726 7.726s-3.459 7.726-7.726 7.726c-6.911 0-12.534 5.623-12.534 12.534v22.88c-.001 4.267-3.459 7.727-7.727 7.727z" fill="#7a6d79"/></g><circle cx="256" cy="96" fill="#fd8087" r="41.894"/><path d="m447.408 508.759h-382.816c-2.651 0-5.075-1.498-6.261-3.87l-18.669-37.338 12.338-10h405l15.338 10-18.669 37.338c-1.186 2.372-3.609 3.87-6.261 3.87z" fill="#b3dafe"/><path d="m467.34 477.551h-353.406c-11.152 0-18.404 11.736-13.416 21.71l4.752 9.5h-40.68c-2.65 0-5.07-1.5-6.26-3.87l-18.67-37.34h432.68z" fill="#8ac9fe"/><path d="m512 446.951c0 5.69-2.3 10.84-6.03 14.57-3.73 3.72-8.88 6.03-14.57 6.03h-470.8c-11.38 0-20.6-9.22-20.6-20.6 0-5.69 2.3-10.84 6.03-14.57s8.88-6.04 14.57-6.04h470.8c11.38 0 20.6 9.23 20.6 20.61z" fill="#eaf6ff"/><path d="m72.11 467.551h-51.51c-11.38 0-20.6-9.22-20.6-20.6 0-5.69 2.3-10.84 6.03-14.57s8.88-6.04 14.57-6.04h51.48l.03.01c-5.68 0-10.83 2.3-14.56 6.03s-6.04 8.88-6.04 14.57c0 11.37 9.22 20.6 20.6 20.6z" fill="#d8ecfe"/><path d="m165.04 364.531v10.05c0 17.01-13.84 30.86-30.86 30.86s-30.86-13.85-30.86-30.86v-10.05z" fill="#dc8758"/><path d="m103.32 302.721h61.72v61.81h-61.72z" fill="#fece85"/><path d="m357.17 302.721v10.3c0 16.88-13.73 30.61-30.6 30.61-16.88 0-30.61-13.73-30.61-30.61v-10.3z" fill="#fece85"/><path d="m103.32 240.911h61.72v61.81h-61.72z" fill="#dc8758"/><path d="m274.76 240.911v10.3c0 16.88-13.73 30.61-30.61 30.61-16.87 0-30.6-13.73-30.6-30.61v-10.3z" fill="#dc8758"/><path d="m295.96 240.911h61.21v61.81h-61.21z" fill="#dc8758"/><path d="m121.28 426.341h-50.71c-17.07 0-30.91-13.83-30.91-30.9 0-8.54 3.46-16.26 9.05-21.86 5.6-5.59 13.33-9.05 21.86-9.05h51.48l.03.01c-8.53 0-16.26 3.46-21.85 9.05-5.6 5.59-9.06 13.32-9.06 21.85 0 16.8 13.41 30.48 30.11 30.9z" fill="#d77f4a"/><path d="m165.04 364.531v10.05c0 17.01-13.84 30.86-30.86 30.86s-30.86-13.85-30.86-30.86v-10.05z" fill="#d77f4a"/><path d="m122.08 302.721h-18.76-33.66c-8.28 0-15.78 3.36-21.21 8.79s-8.79 12.93-8.79 21.21c0 17.57 14.24 31.81 31.81 31.81h31.85 17.96 43.76v-61.81z" fill="#fec165"/><path d="m357.17 302.721v10.3c0 16.88-13.73 30.61-30.6 30.61-16.88 0-30.61-13.73-30.61-30.61v-10.3z" fill="#fec165"/><path d="m122.08 240.911h-18.76-33.66c-16.57 0-30 13.43-30 30v1.81c0 16.57 13.43 30 30 30h33.66 18.76 42.96v-61.81z" fill="#d77f4a"/><path d="m213.55 240.911h61.21v10.3c0 16.88-13.73 30.61-30.61 30.61-16.87 0-30.6-13.73-30.6-30.61z" fill="#d77f4a"/><path d="m295.96 240.911h61.21v61.81h-61.21z" fill="#d77f4a"/><path d="m462.31 187.211c-3.3 1.22-6.86 1.89-10.58 1.89h-83.96c-5.84 0-10.6 4.76-10.6 10.6v41.21h-61.21v-10.3c0-5.85-4.75-10.6-10.6-10.6s-10.6 4.75-10.6 10.6v10.3h-61.21v-41.21c0-5.84-4.76-10.6-10.6-10.6h-27.05c-5.99 0-10.86 4.87-10.86 10.86v40.95h-94.47c-.53 0-1.09-.01-1.67-.04-16.29-.87-29.24-14.36-29.24-30.86 0-8.53 3.46-16.26 9.05-21.86 5.6-5.59 13.33-9.05 21.86-9.05h370.86c8.04 0 15.37 3.07 20.88 8.11z" fill="#fec165"/><path d="m175.903 179.102h27.042c11.379 0 20.604 9.225 20.604 20.604v51.509c0 11.379 9.225 20.604 20.604 20.604 11.379 0 20.604-9.225 20.604-20.604v-20.604c0-11.379 9.225-20.604 20.604-20.604 11.379 0 20.604 9.225 20.604 20.604v82.415c0 11.379 9.225 20.604 20.604 20.604 11.379 0 20.604-9.225 20.604-20.604v-113.32c0-11.379 9.225-20.604 20.604-20.604h83.96c11.379 0 20.604-9.225 20.604-20.604 0-11.379-9.225-20.604-20.604-20.604h-391.471c-11.379 0-20.604 9.225-20.604 20.604 0 11.379 9.225 20.604 20.604 20.604h32.193c11.521 0 20.861 9.34 20.861 20.861v174.616c0 11.521 9.34 20.861 20.861 20.861 11.521 0 20.861-9.34 20.861-20.861v-174.616c0-11.522 9.34-20.861 20.861-20.861z" fill="#ffe177"/><g fill="#ffd15b"><path d="m59.66 158.501c0 5.69 2.31 10.84 6.04 14.57s8.88 6.03 14.57 6.03h-20c-5.69 0-10.84-2.3-14.57-6.03s-6.04-8.88-6.04-14.57c0-11.38 9.23-20.61 20.61-20.61h20c-11.38 0-20.61 9.23-20.61 20.61z"/><path d="m144.18 392.891c-2.97 1.63-6.38 2.55-10 2.55-11.52 0-20.86-9.34-20.86-20.86v-174.62c0-11.52-9.34-20.86-20.86-20.86h20c11.52 0 20.86 9.34 20.86 20.86v174.62c0 7.9 4.39 14.77 10.86 18.31z"/><path d="m254.15 269.231c-2.96 1.65-6.37 2.59-10 2.59-11.38 0-20.6-9.23-20.6-20.61v-51.51c0-11.37-9.23-20.6-20.6-20.6h20c11.37 0 20.6 9.23 20.6 20.6v51.51c0 7.75 4.28 14.5 10.6 18.02z"/><path d="m336.57 331.041c-2.96 1.65-6.37 2.59-10 2.59-11.38 0-20.61-9.23-20.61-20.61v-82.41c0-5.69-2.3-10.84-6.03-14.57-1.35-1.35-2.89-2.51-4.57-3.44 2.96-1.65 6.37-2.59 10-2.59 5.69 0 10.84 2.31 14.57 6.03 3.73 3.73 6.03 8.88 6.03 14.57v82.41c0 7.75 4.28 14.5 10.61 18.02z"/></g></g></svg>