<svg id="Capa_1" enable-background="new 0 0 512 512" height="512" viewBox="0 0 512 512" width="512" xmlns="http://www.w3.org/2000/svg"><g><path d="m368.567 370.538-16.9 10h-188l-17.186-10c-57.81 0-93.458-63.132-63.602-112.635l111.043-184.109c28.881-47.885 98.322-47.885 127.203 0l111.043 184.109c29.857 49.503-5.792 112.635-63.601 112.635z" fill="#fef7ed"/><path d="m283.279 42.423c-15.02 5.481-28.536 15.937-37.849 31.369l-111.043 184.114c-29.855 49.5 5.79 112.63 63.603 112.63h-51.509c-57.814 0-93.458-63.129-63.603-112.63l111.043-184.114c19.574-32.451 57.783-42.907 89.358-31.369z" fill="#fff0dc"/><path d="m323.191 244.668h-134.382c-3.866 0-7 3.134-7 7v128.87h148.382v-128.87c0-3.866-3.134-7-7-7z" fill="#57be92"/><path d="m233.315 244.668v125.868h-51.509v-118.868c0-3.866 3.134-7 7-7z" fill="#22b27f"/><g><g><g><path d="m212.714 194.073c-4.268 0-7.726-3.459-7.726-7.726 0-4.261-3.466-7.726-7.726-7.726s-7.726 3.466-7.726 7.726c0 4.267-3.459 7.726-7.726 7.726s-7.726-3.459-7.726-7.726c0-12.781 10.398-23.179 23.179-23.179s23.179 10.398 23.179 23.179c-.001 4.267-3.46 7.726-7.728 7.726z" fill="#fff0dc"/></g><g><path d="m274.977 137.847c-4.268 0-7.726-3.459-7.726-7.726 0-4.261-3.466-7.726-7.726-7.726s-7.726 3.466-7.726 7.726c0 4.267-3.459 7.726-7.726 7.726s-7.726-3.459-7.726-7.726c0-12.781 10.398-23.179 23.179-23.179s23.179 10.398 23.179 23.179c-.002 4.267-3.461 7.726-7.728 7.726z" fill="#fff0dc"/></g><g><path d="m330.191 194.073c-4.268 0-7.726-3.459-7.726-7.726 0-4.261-3.466-7.726-7.726-7.726s-7.726 3.466-7.726 7.726c0 4.267-3.459 7.726-7.726 7.726s-7.726-3.459-7.726-7.726c0-12.781 10.398-23.179 23.179-23.179s23.179 10.398 23.179 23.179c-.001 4.267-3.46 7.726-7.728 7.726z" fill="#fff0dc"/></g></g></g><g><g fill="#fece85"><path d="m92.552 474.12h-47.81c-3.866 0-7-3.134-7-7v-64.811h61.811v64.811c-.001 3.866-3.135 7-7.001 7z"/><path d="m467.258 474.12h-47.811c-3.866 0-7-3.134-7-7v-64.811h61.811v64.811c0 3.866-3.134 7-7 7z"/></g></g><g><g fill="#fec165"><path d="m74.74 474.12h-30c-3.86 0-7-3.13-7-7v-54.81h30v54.81c0 3.87 3.14 7 7 7z"/><path d="m449.45 474.12h-30c-3.87 0-7-3.13-7-7v-54.81h30v54.81c0 3.87 3.13 7 7 7z"/></g></g><path d="m505 412.309h-498c-3.866 0-7-3.134-7-7v-27.207c0-3.866 3.134-7 7-7h498c3.866 0 7 3.134 7 7v27.207c0 3.866-3.134 7-7 7z" fill="#fece85"/><path d="m57 412.31h-50c-3.87 0-7-3.13-7-7v-27.21c0-3.86 3.13-7 7-7h50c-3.87 0-7 3.14-7 7v27.21c0 3.87 3.13 7 7 7z" fill="#fec165"/></g></svg>