<svg id="Capa_1" enable-background="new 0 0 512 512" height="512" viewBox="0 0 512 512" width="512" xmlns="http://www.w3.org/2000/svg"><g><path d="m390.425 184.071h-38.115c-36.332 0-70.083-18.775-89.243-49.644-19.16-30.869-52.912-49.644-89.243-49.644h-2.603c-94.563-.001-171.221 76.657-171.221 171.218 0 94.562 76.658 171.22 171.219 171.22h91.847 127.359c67.144 0 121.575-54.431 121.575-121.575 0-67.144-54.431-121.575-121.575-121.575z" fill="#dc8758"/><path d="m202.035 427.221h-30.814c-47.289 0-90.089-19.166-121.077-50.144-30.978-30.988-50.144-73.798-50.144-121.077 0-94.557 76.654-171.221 171.221-171.221h2.599c4.15 0 8.268.246 12.336.729-87.121 8.011-155.342 81.286-155.342 170.492 0 47.278 19.166 90.089 50.144 121.077 30.988 30.978 73.788 50.144 121.077 50.144z" fill="#d77f4a"/><path d="m171.22 386.137c-71.756 0-130.135-58.378-130.135-130.135s58.378-130.135 130.135-130.135h2.603c22.276 0 42.589 11.299 54.336 30.226 26.842 43.245 73.253 69.063 124.151 69.063h38.115c44.383 0 80.491 36.108 80.491 80.49s-36.108 80.491-80.49 80.491z" fill="#fece85"/><g><g><path d="m132.491 387.96c-1.046 0-2.108-.214-3.126-.667-3.888-1.728-5.638-6.281-3.91-10.168l98.029-220.474c1.729-3.888 6.282-5.638 10.169-3.909 3.888 1.728 5.638 6.281 3.91 10.168l-98.029 220.474c-1.277 2.87-4.092 4.576-7.043 4.576z" fill="#d77f4a"/></g><g><path d="m206.276 393.842c-1.046 0-2.108-.214-3.126-.667-3.888-1.728-5.638-6.281-3.91-10.168l78.798-177.222c1.729-3.888 6.282-5.638 10.169-3.909 3.888 1.728 5.638 6.281 3.91 10.168l-78.797 177.222c-1.277 2.871-4.093 4.576-7.044 4.576z" fill="#d77f4a"/></g><g><path d="m282.678 393.842c-1.046 0-2.108-.214-3.125-.667-3.888-1.728-5.638-6.281-3.91-10.168l71.576-160.981c1.729-3.889 6.283-5.637 10.169-3.909 3.888 1.728 5.638 6.281 3.91 10.168l-71.576 160.981c-1.278 2.871-4.093 4.576-7.044 4.576z" fill="#d77f4a"/></g><g><path d="m359.078 393.842c-1.046 0-2.108-.214-3.126-.667-3.888-1.728-5.638-6.281-3.91-10.168l67.71-152.284c1.729-3.888 6.283-5.638 10.169-3.909 3.888 1.728 5.638 6.281 3.91 10.168l-67.71 152.284c-1.276 2.871-4.092 4.576-7.043 4.576z" fill="#d77f4a"/></g><g><path d="m73.278 349.305c-1.046 0-2.108-.214-3.126-.667-3.888-1.728-5.638-6.281-3.91-10.168l95.92-215.732c1.729-3.888 6.283-5.637 10.169-3.909 3.888 1.728 5.638 6.281 3.91 10.168l-95.92 215.732c-1.277 2.87-4.092 4.576-7.043 4.576z" fill="#d77f4a"/></g></g><circle cx="151.184" cy="252.006" fill="#fff" r="34.837"/></g></svg>