<svg id="Capa_1" enable-background="new 0 0 511.68 511.68" height="512" viewBox="0 0 511.68 511.68" width="512" xmlns="http://www.w3.org/2000/svg"><g><path d="m233.218 34.159h46.358v66.358h-46.358z" fill="#b5adb6"/><path d="m301.67 44.159h-90.547c-12.193 0-22.078-9.885-22.078-22.078 0-12.193 9.885-22.078 22.078-22.078h90.547c12.193 0 22.078 9.885 22.078 22.078 0 12.193-9.885 22.078-22.078 22.078z" fill="#cbc4cc"/><path d="m261.127 44.16h-50c-12.2 0-22.08-9.89-22.08-22.08 0-6.1 2.47-11.62 6.47-15.61 3.99-4 9.51-6.47 15.61-6.47h50c-6.1 0-11.62 2.47-15.61 6.47-4 3.99-6.47 9.51-6.47 15.61 0 12.19 9.88 22.08 22.08 22.08z" fill="#b5adb6"/><path d="m482.957 252.38v75.26h-453.12v-75.26c0-80.65 58.97-147.51 136.14-159.83h.01c8.37-1.34 16.96-2.03 25.71-2.03h129.4c89.39 0 161.86 72.46 161.86 161.86z" fill="#eaf6ff"/><path d="m482.957 297.03v30.6h-453.12v-75.25c0-80.65 58.97-147.51 136.14-159.83-47.95 29.29-84.63 83.81-84.63 144.11v29.46c0 17.07 13.84 30.91 30.91 30.91z" fill="#d8ecfe"/><path d="m451.14 369.707h-389.486c-28.454 0-53.232-19.425-60.024-47.056-.627-2.551 1.304-5.015 3.931-5.015h501.672c2.627 0 4.558 2.464 3.931 5.015-6.792 27.631-31.57 47.056-60.024 47.056z" fill="#cbc4cc"/><path d="m113.161 369.707h-51.51c-28.454 0-53.229-19.429-60.018-47.059-.629-2.552 1.303-5.017 3.931-5.017h46.342l1.236 5.017c6.789 27.63 31.565 47.059 60.019 47.059z" fill="#b5adb6"/><path d="m84.968 432.951 54.744-57.596 130.017-56.126c8.893-3.839 19.256-.534 24.285 7.745 6.041 9.947 2.033 22.937-8.563 27.75l-32.636 14.825h145.152c11.751 0 21.277 9.526 21.277 21.277 0 9.947-6.892 18.567-16.596 20.756l-128.33 28.941-89.588.255-39.853 44.496-15.674-2.543-40.499-36.518z" fill="#ffeee6"/><path d="m144.788 511.68 8.121-10.238c2.318-2.923 1.937-7.15-.866-9.611l-74.359-65.274c-2.825-2.48-7.106-2.286-9.694.441l-67.593 71.187v13.495z" fill="#7a6d79"/><path d="m419.248 390.826c0 4.976-1.731 9.622-4.667 13.289s-7.077 6.367-11.93 7.469l-128.33 28.938-89.595.258-39.847 44.494-59.915-52.324 16.05-16.885 32.371 28.265c6.371 5.563 16.032 4.97 21.675-1.331l29.667-33.126 89.595-.258 128.33-28.938c3.832-.876 7.232-2.74 9.931-5.305 4.1 3.864 6.665 9.355 6.665 15.454z" fill="#ffdfcf"/></g></svg>