<svg id="Capa_1" enable-background="new 0 0 512 512" height="512" viewBox="0 0 512 512" width="512" xmlns="http://www.w3.org/2000/svg"><g><path d="m354.762 79.01-7.512-10h-180.75l-7.965 10v41.294l6.715 10h183l6.512-10z" fill="#b3dafe"/><path d="m165.25 150.906-6.684 10-11.666 129.602-.01.01-1.838 20.451-15.062 167.283c-1.631 18.128 12.647 33.748 30.847 33.748h83.569 15.444 91.312c18.2 0 32.478-15.62 30.847-33.748l-15.062-167.283-1.838-20.399-11.676-129.664-5.184-10z" fill="#eaf6ff"/><path d="m181.608 498.899c-.413 4.604.196 9.043 1.641 13.101h-22.413c-18.2 0-32.478-15.62-30.847-33.748l28.576-317.347h194.868l1.858 20.647h-130.953c-8.014 0-14.704 6.115-15.423 14.097z" fill="#d8ecfe"/><path d="m365.045 161.252h-218.09c-11.046 0-20-8.954-20-20v-1.294c0-11.046 8.954-20 20-20h218.089c11.046 0 20 8.954 20 20v1.294c.001 11.046-8.954 20-19.999 20z" fill="#cbc4cc"/><path d="m173.489 0h165.022c25.7 0 46.534 20.834 46.534 46.534v2.476c0 16.569-13.431 30-30 30h-198.09c-16.569 0-30-13.431-30-30v-2.476c0-25.7 20.834-46.534 46.534-46.534z" fill="#cbc4cc"/><g fill="#d8ecfe"><path d="m210.06 398.527c-4.276 0-7.743-3.467-7.743-7.743 0-4.276 3.467-7.743 7.743-7.743 4.276 0 7.743 3.466 7.743 7.743 0 4.277-3.467 7.743-7.743 7.743z"/><path d="m301.94 324.755c-4.276 0-7.743-3.467-7.743-7.743 0-4.276 3.467-7.743 7.743-7.743 4.276 0 7.743 3.466 7.743 7.743 0 4.277-3.467 7.743-7.743 7.743z"/><path d="m324.652 389.679c-4.276 0-7.743-3.467-7.743-7.743 0-4.276 3.467-7.743 7.743-7.743 4.276 0 7.743 3.466 7.743 7.743-.001 4.276-3.467 7.743-7.743 7.743z"/></g><g fill="#b5adb6"><path d="m256 47.248c-4.276 0-7.743-3.467-7.743-7.743 0-4.276 3.467-7.743 7.743-7.743 4.276 0 7.743 3.466 7.743 7.743 0 4.276-3.467 7.743-7.743 7.743z"/><path d="m217.803 47.248c-4.276 0-7.743-3.467-7.743-7.743 0-4.276 3.467-7.743 7.743-7.743 4.276 0 7.743 3.466 7.743 7.743-.001 4.276-3.467 7.743-7.743 7.743z"/><path d="m294.197 47.248c-4.276 0-7.743-3.467-7.743-7.743 0-4.276 3.467-7.743 7.743-7.743 4.276 0 7.743 3.466 7.743 7.743 0 4.276-3.467 7.743-7.743 7.743z"/><path d="m332.394 47.248c-4.276 0-7.743-3.467-7.743-7.743 0-4.276 3.467-7.743 7.743-7.743 4.276 0 7.743 3.466 7.743 7.743 0 4.276-3.466 7.743-7.743 7.743z"/><path d="m179.606 47.248c-4.276 0-7.743-3.467-7.743-7.743 0-4.276 3.467-7.743 7.743-7.743 4.276 0 7.743 3.466 7.743 7.743-.001 4.276-3.467 7.743-7.743 7.743z"/></g><path d="m244.407 512c-.021-.186-.021-.372-.021-.557l5.802-262.477c-32.478 2.065-65.627 22.02-98.631 59.412-1.528 1.734-3.665 2.622-5.812 2.622-.227 0-.465-.01-.692-.031l1.838-20.451.01-.01c34.047-36.153 68.838-55.314 103.628-57.069l1.6-72.533h15.485v.176l-1.61 72.73c33.17 3.252 66.422 22.289 99.106 56.759l1.838 20.399c-2.364.217-4.79-.661-6.483-2.571-31.817-35.761-63.655-55.592-94.801-59.061l-5.792 262.456c0 .072 0 .145-.021.206z" fill="#b3dafe"/></g></svg>