<svg id="Capa_1" enable-background="new 0 0 512 512" height="512" viewBox="0 0 512 512" width="512" xmlns="http://www.w3.org/2000/svg"><g><path d="m251.361 0h9.277c3.284 0 6.126 2.283 6.835 5.489l19.308 87.368-4.948 10h-51.167l-5.448-10 19.308-87.368c.709-3.206 3.551-5.489 6.835-5.489z" fill="#fd8087"/><path d="m302.954 92.858h-93.908c-16.569 0-30 13.431-30 30v41.563h153.908v-41.563c0-16.569-13.432-30-30-30z" fill="#fe99a0"/><path d="m259.05 92.86c-16.57 0-30 13.43-30 30v41.56h-50v-41.56c0-16.57 13.43-30 30-30z" fill="#fd8087"/><g><path d="m217.523 162.116c-4.25 0-7.695-3.445-7.695-7.695v-30.782c0-4.25 3.445-7.695 7.695-7.695 4.251 0 7.695 3.445 7.695 7.695v30.782c0 4.25-3.444 7.695-7.695 7.695z" fill="#fe646f"/></g><g><path d="m256 162.116c-4.251 0-7.695-3.445-7.695-7.695v-30.782c0-4.25 3.445-7.695 7.695-7.695s7.695 3.445 7.695 7.695v30.782c0 4.25-3.445 7.695-7.695 7.695z" fill="#fd8087"/></g><g><path d="m294.477 162.116c-4.251 0-7.695-3.445-7.695-7.695v-30.782c0-4.25 3.445-7.695 7.695-7.695s7.695 3.445 7.695 7.695v30.782c0 4.25-3.445 7.695-7.695 7.695z" fill="#fd8087"/></g><path d="m358.61 174.42v45.326l-10 10.587v201.333l10 12.037v48.297c0 11.05-8.96 20-20 20h-165.22c-11.04 0-20-8.95-20-20v-48.297l10-13.37v-199.333l-10-11.254v-45.326c0-11.04 8.96-20 20-20h165.22c11.04 0 20 8.96 20 20z" fill="#fd8087"/><path d="m225.22 512h-51.83c-11.04 0-20-8.95-20-20v-317.58c0-11.04 8.96-20 20-20h51.83c-11.34 0-20.52 9.18-20.52 20.52v316.54c0 11.34 9.18 20.52 20.52 20.52z" fill="#fe646f"/><path d="m153.395 219.746h205.21v223.957h-205.21z" fill="#fe99a0"/><path d="m153.395 219.75h51.303v223.956h-51.303z" fill="#fd8087"/><g><path d="m258.595 289.035c-4.25 0-7.695-3.445-7.695-7.695v-18.956c0-4.25 3.445-7.695 7.695-7.695 4.251 0 7.695 3.445 7.695 7.695v18.956c.001 4.25-3.444 7.695-7.695 7.695z" fill="#57be92"/></g><path d="m230.304 399.071-9.181 1.995 6.178-19.136c4.773-14.784 7.203-30.224 7.203-45.76v-30.739c0-13.305 10.786-24.091 24.091-24.091 13.305 0 24.091 10.786 24.091 24.091v28.649c0 31.288-21.808 58.345-52.382 64.991z" fill="#fd8087"/></g></svg>