<svg id="Capa_1" enable-background="new 0 0 512 512" height="512" viewBox="0 0 512 512" width="512" xmlns="http://www.w3.org/2000/svg"><g><path d="m251.361 0h9.277c3.284 0 6.126 2.283 6.835 5.489l19.308 87.368-4.948 10h-51.167l-5.448-10 19.308-87.368c.709-3.206 3.551-5.489 6.835-5.489z" fill="#ffe177"/><path d="m302.954 92.858h-93.908c-16.569 0-30 13.431-30 30v41.563h153.908v-41.563c0-16.569-13.432-30-30-30z" fill="#fef0ae"/><path d="m259.05 92.86c-16.57 0-30 13.43-30 30v41.56h-50v-41.56c0-16.57 13.43-30 30-30z" fill="#ffe177"/><g><path d="m217.523 162.116c-4.25 0-7.695-3.445-7.695-7.695v-30.782c0-4.25 3.445-7.695 7.695-7.695 4.251 0 7.695 3.445 7.695 7.695v30.782c0 4.25-3.444 7.695-7.695 7.695z" fill="#ffd15b"/></g><g><path d="m256 162.116c-4.251 0-7.695-3.445-7.695-7.695v-30.782c0-4.25 3.445-7.695 7.695-7.695s7.695 3.445 7.695 7.695v30.782c0 4.25-3.445 7.695-7.695 7.695z" fill="#ffe177"/></g><g><path d="m294.477 162.116c-4.251 0-7.695-3.445-7.695-7.695v-30.782c0-4.25 3.445-7.695 7.695-7.695s7.695 3.445 7.695 7.695v30.782c0 4.25-3.445 7.695-7.695 7.695z" fill="#ffe177"/></g><path d="m358.61 174.42v45.326l-10 12.587v200.667l10 10.703v48.297c0 11.05-8.96 20-20 20h-165.22c-11.04 0-20-8.95-20-20v-48.297l10-13.37v-198l-10-12.587v-45.326c0-11.04 8.96-20 20-20h165.22c11.04 0 20 8.96 20 20z" fill="#ffe177"/><path d="m225.22 512h-51.83c-11.04 0-20-8.95-20-20v-317.58c0-11.04 8.96-20 20-20h51.83c-11.34 0-20.52 9.18-20.52 20.52v316.54c0 11.34 9.18 20.52 20.52 20.52z" fill="#ffd15b"/><path d="m153.395 219.746h205.21v223.957h-205.21z" fill="#fef0ae"/><path d="m153.395 219.75h51.303v223.956h-51.303z" fill="#ffe177"/><g><path d="m256 301.2c-4.251 0-7.695-3.445-7.695-7.695v-27.703c0-4.25 3.445-7.695 7.695-7.695s7.695 3.445 7.695 7.695v27.703c0 4.25-3.445 7.695-7.695 7.695z" fill="#57be92"/></g><g><g><path d="m233.405 301.506c-1.757 0-3.522-.598-4.968-1.822l-24.601-20.827c-3.244-2.746-3.647-7.602-.902-10.846 2.745-3.243 7.6-3.647 10.846-.901l24.601 20.827c3.244 2.746 3.647 7.602.902 10.846-1.522 1.797-3.694 2.723-5.878 2.723z" fill="#57be92"/></g><g><path d="m278.595 301.506c-2.185 0-4.355-.925-5.878-2.723-2.745-3.244-2.343-8.1.902-10.846l24.601-20.827c3.245-2.747 8.098-2.343 10.846.901 2.745 3.244 2.343 8.1-.902 10.846l-24.601 20.827c-1.446 1.223-3.211 1.822-4.968 1.822z" fill="#57be92"/></g></g><path d="m270.813 389.44h-29.626c-25.819 0-46.75-20.931-46.75-46.75v-2.436c0-25.819 20.931-46.75 46.75-46.75h29.626c25.819 0 46.75 20.931 46.75 46.75v2.436c0 25.82-20.931 46.75-46.75 46.75z" fill="#fd8087"/><path d="m276.521 388.935c-2.257.339-4.576.503-6.926.503h-27.19c-26.493 0-47.968-21.475-47.968-47.968 0-13.246 5.366-25.241 14.047-33.921 8.68-8.68 20.675-14.047 33.921-14.047h27.19c2.35 0 4.669.164 6.926.503-10.476 1.508-19.854 6.403-26.995 13.544-8.68 8.68-14.047 20.675-14.047 33.921 0 24.143 17.833 44.11 41.042 47.465z" fill="#fe646f"/></g></svg>