<svg id="Capa_1" enable-background="new 0 0 512 512" height="512" viewBox="0 0 512 512" width="512" xmlns="http://www.w3.org/2000/svg"><g><path d="m505 441.433h-498c-3.866 0-7-3.134-7-7v-356.866c0-3.866 3.134-7 7-7h333.131l7.369 10h86.5l6.402-10h64.598c3.866 0 7 3.134 7 7v356.865c0 3.867-3.134 7.001-7 7.001z" fill="#fec165"/><path d="m30 77.57v356.86c0 3.87 3.13 7 7 7h-30c-3.87 0-7-3.13-7-7v-356.86c0-3.87 3.13-7 7-7h30c-3.87 0-7 3.13-7 7z" fill="#fdb441"/><path d="m37 441.43h-30c-3.87 0-7-3.13-7-7v-145.46l30 8.24v137.22c0 3.87 3.13 7 7 7z" fill="#fec165"/><path d="m258.756 70.567h30v370.865h-30z" fill="#fdb441"/><path d="m310.27 110.74v284.41c-4.38 1.29-8.94-1.99-8.94-6.73v-270.68c0-3.86 3.13-7 7-7z" fill="#d8ecfe"/><path d="m185.652 400.225h-128.181v-281.45c0-3.866 3.134-7 7-7h114.181c3.866 0 7 3.134 7 7z" fill="#57be92"/><path d="m108.983 111.775v288.451h-51.509v-281.451c0-3.866 3.134-7 7-7z" fill="#22b27f"/><path d="m253.611 358.635-253.611-69.669v145.467c0 3.866 3.134 7 7 7h251.756v-76.048c0-3.152-2.106-5.915-5.145-6.75z" fill="#fece85"/><path d="m37 441.43h-30c-3.87 0-7-3.13-7-7v-145.46l30 8.24v137.22c0 3.87 3.13 7 7 7z" fill="#fec165"/><path d="m466.462 394.459-30.465-14.433c-1.914-.907-4.135-.898-6.042.023l-36.581 17.675c-1.924.93-4.167.93-6.091 0l-36.674-17.72c-1.854-.896-4.007-.93-5.888-.094l-33.549 14.911c-4.629 2.057-9.843-1.331-9.843-6.397v-270.68c0-3.866 3.134-7 7-7h161.131c3.866 0 7 3.134 7 7v270.388c-.001 5.14-5.354 8.527-9.998 6.327z" fill="#eaf6ff"/><g><g><path d="m432.97 181.312h-85.284c-4.267 0-7.726-3.459-7.726-7.726s3.459-7.726 7.726-7.726h85.284c4.267 0 7.726 3.459 7.726 7.726s-3.459 7.726-7.726 7.726z" fill="#d8ecfe"/></g><g><path d="m375.501 219.944h-27.815c-4.267 0-7.726-3.459-7.726-7.726s3.459-7.726 7.726-7.726h27.815c4.267 0 7.726 3.459 7.726 7.726s-3.459 7.726-7.726 7.726z" fill="#d8ecfe"/></g><g><path d="m432.97 219.944h-27.815c-4.267 0-7.726-3.459-7.726-7.726s3.459-7.726 7.726-7.726h27.815c4.267 0 7.726 3.459 7.726 7.726s-3.459 7.726-7.726 7.726z" fill="#d8ecfe"/></g><g><path d="m375.501 258.575h-27.815c-4.267 0-7.726-3.459-7.726-7.726s3.459-7.726 7.726-7.726h27.815c4.267 0 7.726 3.459 7.726 7.726s-3.459 7.726-7.726 7.726z" fill="#d8ecfe"/></g><g><path d="m432.97 258.575h-27.815c-4.267 0-7.726-3.459-7.726-7.726s3.459-7.726 7.726-7.726h27.815c4.267 0 7.726 3.459 7.726 7.726s-3.459 7.726-7.726 7.726z" fill="#d8ecfe"/></g><g><path d="m375.501 297.207h-27.815c-4.267 0-7.726-3.459-7.726-7.726s3.459-7.726 7.726-7.726h27.815c4.267 0 7.726 3.459 7.726 7.726s-3.459 7.726-7.726 7.726z" fill="#d8ecfe"/></g><g><path d="m432.97 297.207h-27.815c-4.267 0-7.726-3.459-7.726-7.726s3.459-7.726 7.726-7.726h27.815c4.267 0 7.726 3.459 7.726 7.726s-3.459 7.726-7.726 7.726z" fill="#d8ecfe"/></g><g><path d="m432.97 337.384h-57.469c-4.267 0-7.726-3.459-7.726-7.726s3.459-7.726 7.726-7.726h57.469c4.267 0 7.726 3.459 7.726 7.726s-3.459 7.726-7.726 7.726z" fill="#d8ecfe"/></g></g><circle cx="121.561" cy="256" fill="#ffe177" r="28.33"/><path d="m410.402 132.035h-40.271c-16.569 0-30-13.431-30-30v-31.468h100.271v31.467c0 16.569-13.431 30.001-30 30.001z" fill="#fece85"/></g></svg>