<svg id="Capa_1" enable-background="new 0 0 512 512" height="512" viewBox="0 0 512 512" width="512" xmlns="http://www.w3.org/2000/svg"><g><path d="m350.146 51.493h-188.292v-36.49c0-8.284 6.716-15 15-15h158.291c8.284 0 15 6.716 15 15v36.49z" fill="#eaf6ff"/><path d="m369.27 511.995h-226.54c-17.061 0-30.892-13.831-30.892-30.892v-204.353c0-33.471 8.883-66.342 25.743-95.256 16.86-28.914 25.743-61.785 25.743-95.256v-14.159h185.351v14.159c0 33.471 8.883 66.342 25.743 95.256 16.86 28.914 25.743 61.785 25.743 95.256v204.353c.001 17.061-13.83 30.892-30.891 30.892z" fill="#eaf6ff"/><path d="m153.027 481.108v-204.359c0-33.466 8.887-66.345 25.743-95.25v-.01c9.54-16.358 16.514-33.99 20.776-52.281 2.762-11.851 13.365-20.208 25.533-20.208h124.995c-.913-7.531-1.398-15.129-1.398-22.762v-14.159h-172.176-13.175v10.299 3.862c0 33.466-8.887 66.345-25.743 95.25v.01c-16.857 28.904-25.743 61.784-25.743 95.25v204.359c0 17.052 13.829 30.892 30.892 30.892h41.189c-17.063-.001-30.893-13.841-30.893-30.893z" fill="#d8ecfe"/><path d="m368.24 61.18v1.21c0 11.04-8.95 19.99-19.99 19.99h-184.5c-11.04 0-19.99-8.95-19.99-19.99v-1.21c0-11.04 8.95-19.99 19.99-19.99h184.5c11.04 0 19.99 8.95 19.99 19.99z" fill="#b3dafe"/><path d="m205.54 82.38h-41.79c-11.04 0-19.99-8.95-19.99-19.99v-1.21c0-11.04 8.95-19.99 19.99-19.99h41.79c-5.68 0-10.83 2.31-14.56 6.03-3.72 3.73-6.03 8.88-6.03 14.56 0 11.38 9.22 20.6 20.59 20.6z" fill="#8ac9fe"/><path d="m218.487 0c-8.526 0-15.446 6.92-15.446 15.446v25.743h-41.189v-25.743c0-8.526 6.92-15.446 15.446-15.446z" fill="#d8ecfe"/><path d="m168.473 470.806c-8.531 0-15.446-6.915-15.446-15.446v-178.61c0-26.151 20.136-74.508 20.136-74.508 82.838 28.808 73.569-22.678 165.673 0 0 0 20.136 48.357 20.136 74.508v178.61c0 8.531-6.915 15.446-15.446 15.446z" fill="#fff"/></g></svg>