<svg id="Capa_1" enable-background="new 0 0 512 512" height="512" viewBox="0 0 512 512" width="512" xmlns="http://www.w3.org/2000/svg"><g><path d="m512 180.255c0 51.015-35.341 93.765-82.877 105.107-.984.237-1.973.46-2.968.668-3.344.7-5.748 3.633-5.748 7.05v157.58c-76.157 0-255.645-.005-329.327-.005v-157.848c0-3.289-2.286-6.155-5.504-6.834-.693-.146-1.384-.299-2.071-.458-47.855-11.124-83.505-54.019-83.505-105.26 0-59.68 48.38-108.06 108.06-108.06 1.029 0 2.069.01 3.087.041 2.933.093 5.835.288 8.696.597 1.451-2.12 2.954-4.209 4.508-6.257 30.062-39.736 77.722-65.413 131.392-65.413 53.763 0 101.505 25.78 131.566 65.639 1.492 1.997 2.953 4.024 4.374 6.093 3.005-.34 6.041-.566 9.118-.659 1.039-.021 2.089-.041 3.139-.041 59.68-.001 108.06 48.379 108.06 108.06z" fill="#eaf6ff"/><path d="m280.76 3.054c-43.33 6.59-81.11 30.08-106.41 63.52-1.55 2.05-3.05 4.14-4.51 6.26-2.86-.31-5.76-.51-8.69-.6-1.02-.03-2.06-.04-3.09-.04-59.68 0-108.06 48.38-108.06 108.06 0 51.24 35.65 94.14 83.5 105.26.69.16 1.38.31 2.08.46 3.21.68 5.5 3.55 5.5 6.83v157.85h-50v-157.85c0-3.28-2.29-6.15-5.5-6.83-.7-.15-1.39-.3-2.08-.46-47.85-11.12-83.5-54.02-83.5-105.26 0-59.68 48.38-108.06 108.06-108.06 1.03 0 2.07.01 3.09.04 2.93.09 5.83.29 8.69.6 1.46-2.12 2.96-4.21 4.51-6.26 30.06-39.73 77.72-65.41 131.39-65.41 8.5 0 16.86.65 25.02 1.89z" fill="#d8ecfe"/><path d="m420.406 440.845-.204 39.103c0 17.094-13.883 30.926-30.967 30.874l-267.374.015c-17.022-.052-30.782-13.863-30.782-30.874v-39.118z" fill="#b3dafe"/><path d="m171.71 510.834h-49.85c-17.02-.05-30.78-13.86-30.78-30.87v-39.12h50v39.12c0 16.96 13.68 30.74 30.63 30.87z" fill="#8ac9fe"/><g><path d="m251.883 392.547c-4.263 0-7.719-3.455-7.719-7.719v-48.535c0-4.263 3.456-7.719 7.719-7.719s7.719 3.455 7.719 7.719v48.535c0 4.264-3.456 7.719-7.719 7.719z" fill="#d8ecfe"/></g><g><path d="m172.479 392.547c-4.263 0-7.719-3.455-7.719-7.719v-48.535c0-4.263 3.456-7.719 7.719-7.719s7.719 3.455 7.719 7.719v48.535c0 4.264-3.456 7.719-7.719 7.719z" fill="#d8ecfe"/></g><g><path d="m331.287 392.547c-4.263 0-7.719-3.455-7.719-7.719v-48.535c0-4.263 3.455-7.719 7.719-7.719 4.263 0 7.719 3.455 7.719 7.719v48.535c0 4.264-3.455 7.719-7.719 7.719z" fill="#d8ecfe"/></g></g></svg>