<svg id="Capa_1" enable-background="new 0 0 512 512" height="512" viewBox="0 0 512 512" width="512" xmlns="http://www.w3.org/2000/svg"><g><g><path d="m256 321.012c-4.268 0-7.726-3.459-7.726-7.726v-154.313c0-4.268 3.459-7.726 7.726-7.726s7.726 3.459 7.726 7.726v154.313c0 4.267-3.458 7.726-7.726 7.726z" fill="#cbc4cc"/></g><path d="m269.604 509.123h-27.207c-3.866 0-7-3.134-7-7v-152.479h41.207v152.479c0 3.866-3.134 7-7 7z" fill="#fece85"/><path d="m276.6 359.648v10h-6.2c-8.284 0-15 6.716-15 15v124.48h-13c-3.87 0-7-3.14-7-7v-142.48z" fill="#fec165"/><path d="m90.254 508.527h-37.509c-3.866 0-7-3.134-7-7v-74.052h51.509v74.052c0 3.866-3.134 7-7 7z" fill="#fece85"/><path d="m97.25 437.478v10h-16.5c-8.284 0-15 6.716-15 15v46.05h-13c-3.87 0-7-3.14-7-7v-64.05z" fill="#fec165"/><path d="m460.604 509.123h-37.509c-3.866 0-7-3.134-7-7v-74.649h51.509v74.649c0 3.866-3.134 7-7 7z" fill="#fece85"/><path d="m467.6 437.478v10h-16.5c-8.284 0-15 6.716-15 15v46.65h-13c-3.87 0-7-3.14-7-7v-64.65z" fill="#fec165"/><path d="m348.72 335.788v1.36c0 12.42-10.08 22.5-22.5 22.5h-140.44c-12.42 0-22.5-10.08-22.5-22.5v-1.36c0-12.43 10.08-22.5 22.5-22.5h140.44c12.42 0 22.5 10.07 22.5 22.5z" fill="#fece85"/><path d="m237.97 359.648h-52.19c-12.42 0-22.5-10.08-22.5-22.5v-1.36c0-12.43 10.08-22.5 22.5-22.5h52.19c-6.41 0-12.2 2.59-16.39 6.79-4.19 4.19-6.79 9.98-6.79 16.39 0 12.8 10.38 23.18 23.18 23.18z" fill="#fec165"/><path d="m141.65 415.448v1.25c0 11.48-9.3 20.78-20.78 20.78h-98.75c-11.47 0-20.77-9.3-20.77-20.78v-1.25c0-11.48 9.3-20.78 20.77-20.78h98.75c11.48 0 20.78 9.3 20.78 20.78z" fill="#fece85"/><path d="m74.27 437.478h-52.15c-11.47 0-20.77-9.3-20.77-20.78v-1.25c0-11.48 9.3-20.78 20.77-20.78h52.15c-5.92 0-11.26 2.39-15.14 6.27-3.87 3.87-6.27 9.23-6.27 15.14 0 11.82 9.58 21.4 21.41 21.4z" fill="#fec165"/><path d="m512 415.448v1.25c0 11.48-9.3 20.78-20.78 20.78h-98.75c-11.47 0-20.77-9.3-20.77-20.78v-1.25c0-11.48 9.3-20.78 20.77-20.78h98.75c11.48 0 20.78 9.3 20.78 20.78z" fill="#fece85"/><path d="m444.62 437.478h-52.15c-11.47 0-20.77-9.3-20.77-20.78v-1.25c0-11.48 9.3-20.78 20.77-20.78h52.15c-5.92 0-11.26 2.39-15.14 6.27-3.87 3.87-6.27 9.23-6.27 15.14 0 11.82 9.58 21.4 21.41 21.4z" fill="#fec165"/><path d="m472 158.973h-83.284c-22.091 0-40-17.909-40-40v-1.207l7.534-3h146.5l9.25 3v1.207c0 22.092-17.909 40-40 40z" fill="#fe99a0"/><path d="m123.284 158.973h-83.284c-22.091 0-40-17.909-40-40v-1.207l13.75-3h139.75l9.784 3v1.207c0 22.092-17.909 40-40 40z" fill="#fe99a0"/><path d="m308.716 158.973h-105.432c-22.091 0-40-17.909-40-40v-1.207l7.966-3h170l7.466 3v1.207c0 22.092-17.908 40-40 40z" fill="#fd8087"/><path d="m0 117.766 253.032-114.255c1.887-.852 4.049-.852 5.935 0l253.033 114.255z" fill="#fd8087"/><path d="m163.284 117.766 87.091-108.581c2.887-3.599 8.364-3.599 11.251 0l87.091 108.582h-185.433z" fill="#fe99a0"/></g></svg>