<svg id="Capa_1" enable-background="new 0 0 512 512" height="512" viewBox="0 0 512 512" width="512" xmlns="http://www.w3.org/2000/svg"><g><path d="m395.543 194.779c0-5.345-1.832-22.504-2.363-25.663-6.529-38.869-23.38-155.911-23.38-155.911-1.139-7.59-7.659-13.205-15.334-13.205h-196.932c-7.675 0-14.195 5.615-15.333 13.205l-23.381 155.916c-.585 3.146-2.362 20.313-2.362 25.659 0 62.382 40.935 115.198 97.408 133.063 12.853 4.066 21.462 16.167 21.462 29.648v82.149c0 17.126-13.883 31.01-31.01 31.01h-10.337c-17.126 0-31.01 13.883-31.01 31.01v3.337c0 3.866 3.134 7 7 7h172.058c3.866 0 7-3.134 7-7v-3.337c0-17.126-13.884-31.01-31.01-31.01h-10.336c-17.126 0-31.01-13.883-31.01-31.01v-82.15c0-13.481 8.609-25.582 21.462-29.648 56.473-17.864 97.408-70.681 97.408-133.063z" fill="#eaf6ff"/><path d="m266.337 357.489v82.155c0 17.117-13.882 31.01-31.01 31.01h-10.337c-17.126 0-31.01 13.884-31.01 31.01v10.336h-24.01c-3.866 0-7-3.134-7-7v-3.337c0-17.126 13.883-31.01 31.01-31.01h10.337c17.128 0 31.01-13.892 31.01-31.01v-82.155c0-13.479-8.61-25.583-21.459-29.645-56.479-17.862-97.412-70.681-97.412-133.062 0-5.344 1.778-22.513 2.367-25.666l23.382-155.905c1.137-7.597 7.649-13.21 15.329-13.21h31.01c-7.68 0-14.192 5.613-15.329 13.21l-23.381 155.906c-.589 3.153-2.367 20.322-2.367 25.666 0 62.381 40.933 115.201 97.412 133.062 12.847 4.062 21.458 16.167 21.458 29.645z" fill="#d8ecfe"/><path d="m352.399 175.965c-1.439-10.711-6.411-42.75-6.411-42.75-.462-3.082-2.91-5.493-5.999-5.907-62.319-8.347-95.519 56.461-163.996 7.925-4.259-3.019-10.207-.503-10.981 4.66l-5.411 36.08s-1.797 15.179-1.797 18.807c0 54.146 44.051 98.197 98.197 98.197s98.197-44.051 98.197-98.197c0-3.674-1.17-14.132-1.799-18.815z" fill="#fd8087"/><path d="m281.841 289.516c-8.238 2.264-16.9 3.463-25.841 3.463-54.143 0-98.197-44.054-98.197-98.197 0-3.628 1.17-14.13 1.798-18.813 1.212-9.038 5.406-36.073 5.406-36.073.776-5.176 6.733-7.673 11.004-4.648 14.269 10.109 27.001 15.291 38.787 17.246 0 0-2.726 17.593-3.514 23.474-.628 4.683-1.798 15.185-1.798 18.813 0 45.203 30.709 83.375 72.355 94.735z" fill="#fe646f"/></g></svg>