<svg id="Capa_1" enable-background="new 0 0 512 512" height="512" viewBox="0 0 512 512" width="512" xmlns="http://www.w3.org/2000/svg"><g><path d="m339.857 512h-167.714c-11.227 0-20.329-9.102-20.329-20.329 0-11.227 9.102-20.329 20.329-20.329l12.191-10h142l13.524 10c11.227 0 20.329 9.102 20.329 20.329-.001 11.227-9.102 20.329-20.33 20.329z" fill="#b3dafe"/><path d="m207.77 477.29c-3.68 3.68-5.96 8.77-5.96 14.38 0 11.23 9.11 20.33 20.33 20.33h-50c-11.22 0-20.33-9.1-20.33-20.33 0-5.61 2.28-10.7 5.96-14.38 3.68-3.67 8.76-5.95 14.37-5.95l12.19-10h50l-12.19 10c-5.61 0-10.69 2.28-14.37 5.95z" fill="#8ac9fe"/><path d="m483.37 266.94v19.93l-10 10.13v28.65c0 16.133-2.621 31.658-7.467 46.166-1.615 4.836 6.522 9.559 4.427 14.154-22.93 50.36-73.7 85.37-132.65 85.37h-163.36c-58.95 0-109.72-35.01-132.65-85.37-1.525-3.344 7.074-6.756 5.801-10.23-5.723-15.62-8.841-32.494-8.841-50.09v-28.65l-10-10.13v-19.93c0-16.57 13.44-30 30-30h394.74c16.56 0 30 13.43 30 30z" fill="#eaf6ff"/><path d="m483.37 286.87v38.78c0 21.51-4.66 41.94-13.04 60.32h-428.66c-8.38-18.38-13.04-38.81-13.04-60.32v-38.78z" fill="#b3dafe"/><path d="m93.36 385.97h-51.69c-8.38-18.38-13.04-38.81-13.04-60.32v-38.78h50.82v36.39c0 22.42 4.98 43.67 13.91 62.71z" fill="#8ac9fe"/><path d="m227.54 471.34h-53.22c-58.95 0-109.72-35.01-132.65-85.37-8.38-18.38-13.04-38.81-13.04-60.32v-58.71c0-16.57 13.44-30 30-30h51.32c-16.84 0-30.5 13.65-30.5 30.49v55.83c0 22.42 4.98 43.67 13.91 62.71 23.6 50.44 74.82 85.37 134.18 85.37z" fill="#d8ecfe"/><path d="m93.36 385.97h-51.69c-8.38-18.38-13.04-38.81-13.04-60.32v-38.78h50.82v36.39c0 22.42 4.98 43.67 13.91 62.71z" fill="#8ac9fe"/><path d="m483.023 40.171c-2.225-12.316-14.19-20.234-26.314-17.592l-39.382 8.574c-44.85 9.765-84.782 35.122-112.693 71.562l-20.069 26.202h-119.021c-10.188 0-17.938 9.148-16.263 19.198l3.2 19.198c2.65 15.9 16.407 27.554 32.526 27.554h87.024c13.828 0 20.057-4.275 26.7-12.141l40.807-53.276c21.583-28.178 52.461-47.786 87.142-55.337l38.868-8.462c11.646-2.535 19.594-13.75 17.475-25.48z" fill="#eaf6ff"/><path d="m225.669 194.869h-40.658c-16.121 0-29.884-11.659-32.526-27.556l-3.202-19.201c-1.677-10.043 6.068-19.191 16.263-19.191h40.658c-10.195 0-17.94 9.148-16.263 19.191l3.202 19.201c2.642 15.897 16.405 27.556 32.526 27.556z" fill="#d8ecfe"/><g><g><path d="m213.2 93.58c-2.982 0-5.815-1.762-7.037-4.686-8.304-19.87-3.52-30.92.324-39.799 3.524-8.138 6.069-14.018-.248-28.126-1.721-3.843 0-8.353 3.842-10.073 3.844-1.723 8.352 0 10.073 3.841 9.061 20.237 4.216 31.426.324 40.416-3.381 7.809-6.052 13.976-.248 27.863 1.623 3.884-.209 8.35-4.094 9.973-.96.4-1.956.591-2.936.591z" fill="#cbc4cc"/></g><g><path d="m163.674 83.353c-2.982 0-5.815-1.762-7.037-4.686-8.304-19.87-3.52-30.92.324-39.799 3.524-8.138 6.069-14.018-.248-28.126-1.721-3.843 0-8.353 3.842-10.073 3.843-1.723 8.353 0 10.073 3.841 9.061 20.237 4.216 31.426.324 40.416-3.381 7.809-6.052 13.976-.248 27.863 1.623 3.884-.209 8.35-4.094 9.973-.96.401-1.956.591-2.936.591z" fill="#cbc4cc"/></g><g><path d="m262.726 83.353c-2.982 0-5.815-1.762-7.037-4.686-8.304-19.87-3.52-30.92.324-39.799 3.524-8.138 6.069-14.018-.248-28.126-1.721-3.843 0-8.353 3.842-10.073 3.844-1.723 8.352 0 10.073 3.841 9.061 20.237 4.216 31.426.324 40.416-3.381 7.809-6.052 13.976-.248 27.863 1.623 3.884-.209 8.35-4.094 9.973-.961.401-1.957.591-2.936.591z" fill="#cbc4cc"/></g></g></g></svg>