<svg id="Capa_1" enable-background="new 0 0 512.001 512.001" height="512" viewBox="0 0 512.001 512.001" width="512" xmlns="http://www.w3.org/2000/svg"><g><path d="m113.59 148.326c0 1.802.031 3.597.092 5.384.796 23.253-5.318 46.268-17.865 65.861-18.437 28.789-29.326 62.875-29.87 99.469-1.562 104.978 84.709 192.766 189.697 192.96 105.141.194 190.435-84.981 190.435-190.077 0-37.987-11.148-73.366-30.347-103.055-12.897-19.944-19.239-43.294-18.713-67.039.026-1.164.039-2.332.039-3.502 0-81.919-63.457-148.327-141.734-148.327-78.278 0-141.734 66.408-141.734 148.326z" fill="#57be92"/><path d="m266.042 511.73c-3.44.19-6.91.28-10.4.27-104.99-.19-191.26-87.98-189.7-192.96.55-36.59 11.44-70.68 29.87-99.47 12.55-19.59 18.67-42.61 17.87-65.86-.06-1.79-.09-3.58-.09-5.38 0-81.92 63.45-148.33 141.73-148.33 3.36 0 6.7.12 10 .36-73.61 5.37-131.73 69.57-131.73 147.97 0 1.8.03 3.59.09 5.38.8 23.25-5.32 46.27-17.87 65.86-18.43 28.79-29.32 62.88-29.87 99.47-1.51 101.76 79.5 187.37 180.1 192.69z" fill="#22b27f"/><path d="m255.721 470.793c-39.648-.072-77.105-15.997-105.469-44.84-28.385-28.863-43.693-66.614-43.103-106.299.412-27.707 8.493-54.631 23.369-77.859 17.023-26.58 25.442-57.526 24.348-89.494-.045-1.322-.068-2.661-.068-3.975 0-59.065 45.096-107.119 100.527-107.119s100.525 48.054 100.525 107.119c0 .861-.009 1.72-.028 2.577-.717 32.394 8.034 63.63 25.307 90.341 15.533 24.019 23.742 51.917 23.742 80.678 0 39.768-15.485 77.154-43.602 105.272-28.114 28.114-65.499 43.599-105.259 43.599-.003 0-.289 0-.289 0z" fill="#fef0ae"/><path d="m281.932 468.557c-8.478 1.484-17.142 2.236-25.919 2.236-.01 0-.288 0-.288 0-39.652-.072-77.109-15.999-105.47-44.844-28.392-28.855-43.7-66.611-43.103-106.294.412-27.712 8.489-54.631 23.364-77.861 17.029-26.579 25.445-57.525 24.354-89.492-.051-1.319-.072-2.658-.072-3.976 0-59.06 45.091-107.118 100.525-107.118 8.901 0 17.534 1.236 25.755 3.564-43 12.156-74.771 53.971-74.771 103.554 0 1.319.021 2.658.072 3.976 1.092 31.967-7.325 62.913-24.354 89.492-14.876 23.231-22.952 50.149-23.364 77.861-.598 39.683 14.711 77.439 43.103 106.294 22.241 22.623 50.076 37.292 80.168 42.608z" fill="#ffe177"/><ellipse cx="256.002" cy="321.923" fill="#fece85" rx="75.203" ry="75.203" transform="matrix(.383 -.924 .924 .383 -139.384 435.243)"/><path d="m281.757 392.581c-8.035 2.936-16.71 4.543-25.755 4.543-41.465 0-75.203-33.738-75.203-75.203s33.738-75.203 75.203-75.203c9.045 0 17.719 1.607 25.755 4.553-28.824 10.529-49.449 38.23-49.449 70.65s20.624 60.122 49.449 70.66z" fill="#fec165"/></g></svg>