<svg id="Capa_1" enable-background="new 0 0 512 512" height="512" viewBox="0 0 512 512" width="512" xmlns="http://www.w3.org/2000/svg"><g><path d="m365.274 304.375-1.773 12.37-13.987 97.398-2.889 20.11-10.298 71.742c-.495 3.446-3.447 6.005-6.929 6.005h-146.804c-3.481 0-6.433-2.558-6.929-6.004l-1.963-13.657-2.462-17.179-9.565-66.597-2.462-17.189-12.495-86.999 14.943-10h182.333z" fill="#fece85"/><path d="m300.701 66.138-10.372 10h-69.333l-11.194-10c34.035-17.273 60.81-37.784 77.269-62.889 2.969-4.529 9.682-4.286 12.209.503 10.051 19.049 9.353 40.055 1.421 62.386z" fill="#fe99a0"/><path d="m360.305 98.42c0 8.92-3.61 16.98-9.46 22.83-5.84 5.84-13.91 9.45-22.83 9.45l-11.353 10h-122.334l-10.353-10c-17.83 0-32.29-14.45-32.29-32.28 0-8.92 3.61-16.99 9.46-22.83 5.84-5.85 13.91-9.46 22.83-9.46h144.04c17.83 0 32.29 14.46 32.29 32.29z" fill="#fd8087"/><path d="m234.095 130.7h-50.12c-17.83 0-32.29-14.45-32.29-32.28 0-8.92 3.61-16.99 9.46-22.83 5.84-5.85 13.91-9.46 22.83-9.46h50.1l.02.01c-16.71 0-30.25 13.54-30.25 30.25v4.06c0 16.71 13.54 30.25 30.25 30.25z" fill="#fe646f"/><path d="m390.105 162.99c0 8.91-3.61 16.99-9.45 22.83-5.85 5.84-13.92 9.46-22.84 9.46l-13.153 10h-176.667l-13.82-10c-.28 0-.56 0-.83-.01-17.45-.44-31.46-14.73-31.46-32.28 0-8.91 3.61-16.99 9.46-22.83 5.84-5.84 13.91-9.46 22.83-9.46h203.64c17.84 0 32.29 14.46 32.29 32.29z" fill="#fe99a0"/><path d="m204.285 195.27h-50.94c-17.45-.44-31.46-14.73-31.46-32.28 0-8.91 3.61-16.99 9.46-22.83 5.84-5.84 13.91-9.46 22.83-9.46h50.11c-16.7 0-30.25 13.55-30.25 30.25v4.08c0 16.71 13.55 30.24 30.25 30.24z" fill="#fd8087"/><path d="m414.945 227.56c0 8.92-3.61 16.99-9.46 22.83-5.84 5.85-13.91 9.46-22.83 9.46l-11.993 10h-228.667l-12.66-10c-17.83 0-32.28-14.46-32.28-32.29 0-8.92 3.61-16.98 9.45-22.83 5.85-5.84 13.91-9.45 22.83-9.45h253.32c17.83 0 32.29 14.45 32.29 32.28z" fill="#fd8087"/><path d="m179.445 259.85h-50.11c-17.83 0-32.28-14.46-32.28-32.29 0-8.92 3.61-16.98 9.45-22.83 5.85-5.84 13.91-9.45 22.83-9.45h49.72c-16.52.2-29.85 13.66-29.85 30.24v4.08c0 16.71 13.54 30.25 30.24 30.25z" fill="#fe646f"/><path d="m380.105 304.38h-248.217c-5.523 0-10-4.477-10-10v-24.533c0-5.523 4.477-10 10-10h248.218c5.523 0 10 4.477 10 10v24.533c-.001 5.523-4.478 10-10.001 10z" fill="#fece85"/><path d="m362.281 325.236h-134.928c-9.525 0-16.84 8.44-15.487 17.869l24.25 168.895h-53.521c-3.482 0-6.434-2.559-6.929-6.005l-28.948-201.62h218.556z" fill="#fec165"/><g><g><g><path d="m365.275 304.38-1.77 12.37-9.08 8.49-127.94 119.67-48.55 45.41c-1.22 1.14-2.7 1.82-4.23 2.02l-2.46-17.18 52.53-49.13 107.75-100.79 22.3-20.86z" fill="#fec165"/></g></g></g><g><g><g><path d="m271.485 304.38c0 2.09-.82 4.17-2.47 5.71l-16.2 15.15-38.36 35.89-48.54 45.4c-1.22 1.15-2.71 1.82-4.24 2.03l-2.46-17.19 52.55-49.15 18.16-16.98 22.3-20.86z" fill="#fec165"/></g></g></g><g fill="#fdb441"><path d="m214.455 361.13-48.54 45.4c-1.22 1.15-2.71 1.82-4.24 2.03l-2.46-17.19 52.55-49.15c.02.29.06.58.1.88z"/><path d="m226.485 444.91-48.55 45.41c-1.22 1.14-2.7 1.82-4.23 2.02l-2.46-17.18 52.53-49.13z"/><path d="m271.485 304.38c0 2.09-.82 4.17-2.47 5.71l-16.2 15.15h-22.89l22.3-20.86z"/><path d="m365.275 304.38-1.77 12.37-9.08 8.49h-22.9l22.3-20.86z"/></g><g><g><path d="m349.514 414.143-2.889 20.11-83.129 77.747h-19.275c0-2.086.834-4.172 2.482-5.716l96.355-90.128c1.804-1.689 4.193-2.357 6.456-2.013z" fill="#fec165"/></g></g></g></svg>