<svg id="Capa_1" enable-background="new 0 0 507.316 507.316" height="512" viewBox="0 0 507.316 507.316" width="512" xmlns="http://www.w3.org/2000/svg"><g><path d="m41.639 236.735c-8.769-43.256-18.458-63.739-39.721-86.271-2.786-2.953-2.506-7.646.631-10.223l15.125-12.428c2.812-2.31 6.946-2.102 9.464.525 20.812 21.708 37.053 49.594 50.014 81.915l.71 6.453-28.137 20.981z" fill="#fece85"/><path d="m77.169 210.241 16.343 3.632c18.956 4.213 36.886 12.036 53.089 22.739 91.925 60.723 194.625 47.126 305.239-21.044l30.132-19.304c2.213-1.418 5.034-1.476 7.304-.152l14.566 8.5c2.82 1.645 4.128 5.022 3.152 8.137l-6.551 20.924c-5.653 18.054-14.248 35.077-25.632 50.188-83.328 110.614-255.959 126.575-367.127 49.335-33.038-22.955-56.306-57.435-66.031-96.472z" fill="#ffe177"/><path d="m503.843 204.611c2.82 1.646 4.127 5.022 3.151 8.138l-6.553 20.924c-5.645 18.059-14.247 35.078-25.631 50.19-83.125 110.353-255.145 126.496-366.343 49.871-33.399-23.004-57.01-57.659-66.818-97.012l19.852-14.804 52.086 54.631c86.061 79.757 218.944 70.495 302.121 2.678 37.674-31.936 60.492-54.012 77.562-80.787z" fill="#ffd15b"/><path d="m506.995 212.749-6.553 20.924c-20.727 5.851-35.933-2.812-48.604-18.111l30.132-19.303c2.213-1.418 5.034-1.476 7.305-.151l14.569 8.503c2.819 1.646 4.127 5.023 3.151 8.138z" fill="#fece85"/></g></svg>