<svg id="Capa_1" enable-background="new 0 0 512 512" height="512" viewBox="0 0 512 512" width="512" xmlns="http://www.w3.org/2000/svg"><g><path d="m348.716 264.241 12.336-8.224c1.947-1.298 3.117-3.484 3.117-5.824v-68.644c0-24.726-14.736-47.073-37.463-56.813l-25.284-10.836c-5.682-2.435-9.366-8.022-9.366-14.203v-41.018h-72.113v41.018c0 6.182-3.684 11.768-9.366 14.203l-25.284 10.836c-22.727 9.74-37.463 32.087-37.463 56.813v68.644c0 2.34 1.17 4.526 3.117 5.824l12.336 8.224v116.584l-12.336 8.224c-1.947 1.298-3.117 3.484-3.117 5.824v86.221c0 17.069 13.837 30.905 30.905 30.905h154.527c17.069 0 30.905-13.837 30.905-30.905v-86.221c0-2.34-1.17-4.526-3.117-5.824l-12.336-8.224v-116.584z" fill="#eaf6ff"/><path d="m348.716 264.241-10 7.259v100l10 9.327 12.336 8.224c1.947 1.298 3.117 3.484 3.117 5.824v86.22c0 17.069-13.837 30.905-30.905 30.905h-154.528c-17.069 0-30.905-13.837-30.905-30.905v-86.22c0-2.34 1.17-4.526 3.117-5.824l12.336-8.224 10-5.577v-105.5l-10-5.509-12.336-8.224c-1.947-1.298-3.117-3.484-3.117-5.824v-54.284c67.992 53.054 112.63-16.483 216.338 0v54.284c0 2.34-1.17 4.526-3.117 5.824z" fill="#c4e2ff"/><path d="m250.849 68.682v31.019c0 6.181-3.688 11.765-9.364 14.196l-25.291 10.837c-22.726 9.746-37.457 32.09-37.457 56.815v72.391l15.453 10.302v116.586l-15.453 10.302v89.966c0 17.07 13.835 30.905 30.905 30.905h-30.905c-17.069 0-30.905-13.837-30.905-30.905v-86.22c0-2.34 1.17-4.526 3.117-5.824l12.336-8.224v-116.587l-12.336-8.224c-1.947-1.298-3.117-3.484-3.117-5.824v-68.645c0-24.724 14.732-47.069 37.457-56.815l25.291-10.837c5.676-2.431 9.364-8.015 9.364-14.196v-31.018z" fill="#d8ecfe"/><path d="m209.642 512h-30.905c-17.069 0-30.905-13.837-30.905-30.905v-86.22c0-2.34 1.17-4.526 3.117-5.824l12.336-8.224v-116.586l-12.336-8.224c-1.947-1.298-3.117-3.484-3.117-5.824v-54.284c10.776 8.417 20.974 13.743 30.905 16.823v37.461c0 2.34 1.17 4.526 3.117 5.824l12.336 8.224v116.586l-12.336 8.224c-1.947 1.298-3.117 3.484-3.117 5.824v86.22c-.001 17.07 13.835 30.905 30.905 30.905z" fill="#8ac9fe"/><path d="m163.284 264.241h30.905v116.586h-30.905z" fill="#8ac9fe"/><path d="m298.133 68.679h-84.265c-3.866 0-7-3.134-7-7v-54.679c0-3.866 3.134-7 7-7h84.265c3.866 0 7 3.134 7 7v54.679c0 3.866-3.134 7-7 7z" fill="#57be92"/><path d="m255.289 68.682h-41.207c-3.987 0-7.211-3.235-7.211-7.211v-54.26c0-3.987 3.224-7.211 7.211-7.211h41.207c-3.987 0-7.211 3.224-7.211 7.211v54.26c0 3.976 3.224 7.211 7.211 7.211z" fill="#22b27f"/><path d="m163.284 264.241h185.433v116.584h-185.433z" fill="#57be92"/><path d="m163.284 264.241h30.905v116.586h-30.905z" fill="#22b27f"/><path d="m285.854 330.73c0 19.663-13.366 35.603-29.854 35.603s-29.854-15.94-29.854-35.603c0-14.939 17.232-38.934 25.513-49.602 2.202-2.837 6.481-2.837 8.684 0 8.279 10.668 25.511 34.663 25.511 49.602z" fill="#eaf6ff"/><path d="m268.136 363.263c-3.706 1.974-7.816 3.066-12.136 3.066-16.489 0-29.856-15.939-29.856-35.6 0-14.936 17.231-38.932 25.512-49.602 2.204-2.839 6.485-2.835 8.688.005 2.147 2.767 4.896 6.43 7.792 10.599-8.269 11.91-17.719 27.938-17.719 38.998 0 14.507 7.282 26.991 17.719 32.534z" fill="#d8ecfe"/></g></svg>