<svg id="Capa_1" enable-background="new 0 0 512 512" height="512" viewBox="0 0 512 512" width="512" xmlns="http://www.w3.org/2000/svg"><g><g><g><path d="m505.799 280.636v39.644c0 40.344-32.819 73.163-73.163 73.163h-59.458c8.372-12.521 14.539-26.642 17.956-41.807h41.502c17.287 0 31.356-14.068 31.356-31.356v-39.644c0-17.287-14.068-31.356-31.356-31.356h-38.408s-.01-41.41-.031-41.807h38.44c40.343 0 73.162 32.819 73.162 73.163z" fill="#b3dafe"/></g></g><path d="m284.229 449.289-9.729 10h-74l-14.537-10c-66.274 0-120-53.726-120-120v-121.954c0-16.569 13.431-30 30-30h278.266c16.569 0 30 13.431 30 30v121.954c0 66.274-53.725 120-120 120z" fill="#eaf6ff"/><path d="m459.383 512h-406.766c-17.297 0-32.767-9.072-38.775-22.74l-13.06-29.711c-2.125-4.835 1.416-10.26 6.698-10.26h497.041c5.282 0 8.823 5.425 6.698 10.26l-13.06 29.711c-6.009 13.668-21.478 22.74-38.776 22.74z" fill="#b3dafe"/><path d="m104.877 511.998h-52.26c-17.298 0-32.767-9.072-38.776-22.743l-13.059-29.707c-2.125-4.835 1.416-10.261 6.698-10.261h41.051l17.57 39.968c6.009 13.671 21.478 22.743 38.776 22.743z" fill="#8ac9fe"/><path d="m235.96 449.29h-50c-66.27 0-120-53.73-120-120v-121.95c0-16.57 13.43-30 30-30h50c-16.57 0-30 13.43-30 30v121.95c0 66.27 53.73 120 120 120z" fill="#d8ecfe"/><path d="m298.92 312.54c0 30.37-18.52 55.69-43.11 61.46-.57.14-1.14.26-1.71.37-2.93.58-5.93.88-9 .88-2.08 0-4.13-.14-6.14-.4v-.01c-26.84-3.55-47.69-30.08-47.69-62.3 0-31.79 20.3-58.05 46.64-62.15.64-.13 5.02-.56 7.19-.56 3.55 0 7.03.4 10.39 1.17h.02c24.74 5.65 43.41 31.06 43.41 61.54z" fill="#d8ecfe"/><g><g><path d="m234.693 141.104c-3.067 0-5.979-1.812-7.236-4.819-12.581-30.103-5.633-46.149.497-60.307 5.625-12.992 10.483-24.212-.418-48.559-1.769-3.951 0-8.588 3.951-10.357 3.95-1.774 8.589-.001 10.358 3.95 13.723 30.648 6.696 46.877.497 61.195-5.595 12.923-10.427 24.083-.418 48.034 1.669 3.994-.215 8.586-4.21 10.255-.99.412-2.014.608-3.021.608z" fill="#cbc4cc"/></g><g><path d="m155.391 124.729c-3.067 0-5.979-1.812-7.236-4.819-12.581-30.104-5.633-46.15.497-60.308 5.625-12.991 10.483-24.212-.418-48.557-1.769-3.952-.001-8.589 3.951-10.358 3.951-1.771 8.589 0 10.358 3.95 13.723 30.647 6.696 46.876.497 61.194-5.595 12.923-10.428 24.084-.419 48.035 1.669 3.994-.215 8.586-4.21 10.255-.989.412-2.013.608-3.02.608z" fill="#cbc4cc"/></g><g><path d="m313.995 124.729c-3.067 0-5.979-1.812-7.236-4.819-12.581-30.104-5.633-46.15.497-60.308 5.625-12.991 10.483-24.212-.418-48.557-1.769-3.952 0-8.589 3.951-10.358 3.952-1.771 8.589 0 10.358 3.95 13.723 30.647 6.696 46.876.497 61.194-5.595 12.923-10.428 24.084-.419 48.035 1.669 3.994-.215 8.586-4.21 10.255-.989.412-2.013.608-3.02.608z" fill="#cbc4cc"/></g></g><path d="m288.92 312.54c0 30.37-18.52 55.69-43.11 61.46-.57.14-1.14.26-1.71.37-2.93.58-5.93.88-9 .88-2.08 0-4.13-.14-6.14-.4v-.01c-26.84-3.55-47.69-30.08-47.69-62.3 0-31.79 20.3-58.05 46.64-62.15.25-.04.5-.08.75-.11v-.01h.03c2.1-.29 4.24-.44 6.41-.44 3.55 0 7.03.4 10.39 1.17h.02c24.74 5.65 43.41 31.06 43.41 61.54z" fill="#fec165"/><g><path d="m243.72 369.51c.36.86 1.32 2.71 2.09 4.49-.57.14-1.14.26-1.71.37-2.93.58-5.93.88-9 .88-2.08 0-4.13-.14-6.14-.4v-.01c-13.59-33.02-5.91-50.73.85-66.37 6.42-14.83 10.54-30.29-1.9-58.08.25-.04.5-.08.75-.11v-.01h.03c2.1-.29 4.24-.44 6.41-.44 3.55 0 7.03.4 10.39 1.17h.02c0 .01 0 .01.01.02 12.71 31.28 5.26 48.45-1.32 63.68-6.39 14.75-11.9 27.48-.48 54.81z" fill="#dc8758"/></g></g></svg>