<svg id="Capa_1" enable-background="new 0 0 512 512" height="512" viewBox="0 0 512 512" width="512" xmlns="http://www.w3.org/2000/svg"><g><path d="m139.234 133.13c-12.621 9.484-28.381 15.021-45.437 14.775-40.361-.581-73.104-34.025-72.868-74.39.238-40.643 33.256-73.515 73.956-73.515 40.836 0 73.946 33.11 73.946 73.957z" fill="#fd8087"/><path d="m317.548 280.605-4.838-5.861 86.574-98.298 18.027-9.114 72-81.751c3.982-4.521.772-11.627-5.253-11.627h-382.145c-6.052 0-9.252 7.161-5.215 11.669l73.171 81.721 21.739 13.111 82.627 92.282-2.956 7.867h.17l-.008.005v151.03c0 19.02-15.42 34.44-34.44 34.44h-7c-21.5 0-38.92 17.42-38.92 38.92 0 1.94.78 3.68 2.05 4.95s3.01 2.05 4.95 2.05h192.65c3.86 0 7-3.13 7-7 0-10.75-4.36-20.48-11.4-27.52-7.05-7.04-16.77-11.4-27.52-11.4h-7c-19.03 0-34.45-15.42-34.45-34.44v-151.034z" fill="#eaf6ff"/><path d="m115.468 144.998c-6.542 1.895-13.444 2.915-20.583 2.915-40.847 0-73.957-33.11-73.957-73.957 0-40.846 33.11-73.956 73.957-73.956 7.149 0 14.062 1.02 20.604 2.905-30.823 8.921-53.353 37.354-53.353 71.052-.001 33.687 22.519 62.12 53.332 71.041z" fill="#fe646f"/><path d="m320.144 277.644-2.596 2.957h-46.265l-174.582-194.975c-4.037-4.509-.837-11.67 5.215-11.67h35.845z" fill="#d8ecfe"/><path d="m292.04 280.6v151.04c0 19.01-15.56 34.38-34.57 34.43-12.63.04-24.06 5.17-32.34 13.46-8.31 8.3-13.45 19.79-13.45 32.47h-13.6c-1.94 0-3.68-.78-4.95-2.05s-2.05-3.01-2.05-4.95c0-21.5 17.42-38.92 38.92-38.92h7c19.02 0 34.44-15.42 34.44-34.44v-151.04z" fill="#d8ecfe"/><path d="m320.144 277.644-2.596 2.957h-46.265l-101.411-113.258c28.083 12.311 49.861 17.627 68.404 18.863z" fill="#fe646f"/><path d="m417.311 167.332-99.763 113.268h-46.265l-101.411-113.257c117.688 51.56 124.538-19.43 247.439-.011z" fill="#fd8087"/><path d="m320.144 277.644-2.596 2.957h-46.265l-101.411-113.258c28.083 12.311 49.861 17.627 68.404 18.863z" fill="#fe646f"/></g></svg>