<svg id="Capa_1" enable-background="new 0 0 512 512" height="512" viewBox="0 0 512 512" width="512" xmlns="http://www.w3.org/2000/svg"><g><path d="m218.505 275.827h74.989v112.325h-74.989z" fill="#ffcebf"/><path d="m322.438 336.778h-26.438c-22.091 0-40 17.909-40 40v1.374l3 3h65.667l4.771-3v-34.373c0-3.867-3.134-7.001-7-7.001z" fill="#7a6d79"/><path d="m128.801 195.148h20.687l10.343-6.256v-38.996l-10.343-6.465h-20.687c-8.569 0-15.515 6.946-15.515 15.515v20.687c0 8.569 6.946 15.515 15.515 15.515z" fill="#ffcebf"/><path d="m383.199 195.148h-20.687l-10.343-6.256v-38.996l10.343-6.465h20.687c8.569 0 15.515 6.946 15.515 15.515v20.687c0 8.569-6.946 15.515-15.515 15.515z" fill="#ffcebf"/><path d="m189.562 336.778h26.438c22.091 0 40 17.909 40 40v1.374l-3.333 3h-66.667l-3.438-3v-34.373c0-3.867 3.134-7.001 7-7.001z" fill="#7a6d79"/><path d="m256 295.404c-58.825 0-106.513-47.687-106.513-106.512v-99.32c0-29.134 23.618-52.752 52.752-52.752h107.521c29.134 0 52.752 23.618 52.752 52.752v99.32c.001 58.825-47.687 106.512-106.512 106.512z" fill="#ffeee6"/><path d="m271 294.34c-4.9.7-9.91 1.06-15 1.06-58.83 0-106.51-47.68-106.51-106.51v-99.32c0-29.13 23.62-52.75 52.75-52.75h30c-29.13 0-52.75 23.62-52.75 52.75v99.32c0 53.74 39.78 98.17 91.51 105.45z" fill="#ffdfcf"/><path d="m288.292.003h-3.17-61.157c-51.129 0-92.577 41.448-92.577 92.577v50.851h61.158c51.129 0 92.577-41.448 92.577-92.577v17.672c0 41.369 33.536 74.905 74.905 74.905h20.587v-51.106c-.001-50.988-41.335-92.322-92.323-92.322z" fill="#dc8758"/><path d="m273.96 0c-51.13 0-92.57 41.45-92.57 92.58v50.85h-50v-50.85c0-51.13 41.44-92.58 92.57-92.58z" fill="#d77f4a"/><g><path d="m256.227 254.258c-14.739 0-28.099-6.801-35.786-18.235-2.391-3.556-1.446-8.376 2.109-10.766 3.554-2.391 8.376-1.447 10.766 2.109 4.796 7.133 13.35 11.377 22.912 11.377.07 0 .138-.001.208-.001 9.312-.06 17.608-4.282 22.192-11.293 2.344-3.584 7.153-4.592 10.737-2.247 3.587 2.344 4.593 7.151 2.248 10.738-7.437 11.376-20.55 18.223-35.078 18.317-.101 0-.205.001-.308.001z" fill="#fd8087"/></g><g><g><path d="m206.512 201.361c-4.285 0-7.758-3.473-7.758-7.758v-16.588c0-4.285 3.473-7.758 7.758-7.758s7.758 3.473 7.758 7.758v16.588c0 4.286-3.473 7.758-7.758 7.758z" fill="#7a6d79"/></g><g><path d="m305.488 201.361c-4.285 0-7.758-3.473-7.758-7.758v-16.588c0-4.285 3.473-7.758 7.758-7.758s7.758 3.473 7.758 7.758v16.588c-.001 4.286-3.474 7.758-7.758 7.758z" fill="#7a6d79"/></g></g><path d="m420.622 512h-55.06l-7.828-10h-202.734l-8.562 10h-55.06c-3.866 0-7-3.134-7-7v-66.849c0-33.137 26.863-60 60-60h8.622l2.5 3h24.667l2.395-3h146.876l3.729 3h21.667l3.488-3h9.301c33.137 0 60 26.863 60 60v66.849c-.001 3.866-3.135 7-7.001 7z" fill="#eaf6ff"/><path d="m114.38 438.15v66.85c0 3.87 3.13 7 7 7h-30c-3.87 0-7-3.13-7-7v-66.85c0-33.14 26.86-60 60-60h30c-33.14 0-60 26.86-60 60z" fill="#d8ecfe"/><path d="m146.438 512v-126.608c0-3.999 3.242-7.24 7.24-7.24h28.883l67.583 92.877c2.892 3.974 8.817 3.974 11.709 0l67.583-92.877h28.883c3.999 0 7.24 3.242 7.24 7.24v126.608z" fill="#7a6d79"/><g><path d="m256 434.08c-4.285 0-7.758-3.473-7.758-7.758v-18.101c0-4.285 3.473-7.758 7.758-7.758s7.758 3.473 7.758 7.758v18.101c0 4.285-3.473 7.758-7.758 7.758z" fill="#7a6d79"/></g></g></svg>