<svg id="Capa_1" enable-background="new 0 0 512 512" height="512" viewBox="0 0 512 512" width="512" xmlns="http://www.w3.org/2000/svg"><g><path d="m353.167 273.74c-10.776 31.719-16.153 64.747-16.153 97.754 0 32.121 5.089 64.211 15.246 95.044 1.535 4.656 11.787 45.462 6.876 45.462h-175.249s-25.682-40.806-24.147-45.462c20.593-62.532 20.356-130.215-.907-192.798-5.347-15.751-9.385-31.874-12.084-48.223-2.709-16.359-4.069-32.925-4.069-49.552v-1.288l10-5.178v-65.499l-10-4.072h226.64l-10 3.572v67.5l10 3.678v1.288c0 33.253-5.46 66.281-16.153 97.774z" fill="#ffe177"/><path d="m200.947 466.538c-1.535 4.656-3.183 9.292-4.945 13.887l-12.115 31.575s-25.682-40.806-24.147-45.462c20.593-62.532 20.356-130.215-.907-192.798-5.347-15.751-9.385-31.874-12.084-48.223-2.709-16.359-4.069-32.925-4.069-49.552v-76.037h41.207v76.038c0 16.627 1.36 33.192 4.069 49.552 2.699 16.349 6.737 32.471 12.084 48.223 21.264 62.582 21.5 130.265.907 192.797z" fill="#ffd15b"/><path d="m369.32 174.678v-74.749l-8.57-10h-210.5l-7.57 10v74.749h8.57 209.25z" fill="#eaf6ff"/><path d="m142.68 99.928h41.207v74.735h-41.207z" fill="#d8ecfe"/><path d="m348.047 174.662v42.85c0 22.077-17.956 40.033-40.033 40.033-22.066 0-40.033-17.956-40.033-40.033v-20.367c0-1.03-.834-1.865-1.865-1.865s-1.875.834-1.875 1.865v58.339c0 22.726-18.481 41.207-41.207 41.207s-41.207-18.481-41.207-41.207v-80.823h166.22z" fill="#ffd15b"/><path d="m369.32 99.928v20.604h-10.971c-5.676 0-10.302 4.626-10.302 10.302v43.829h-166.22v-43.829c0-5.676-4.626-10.302-10.302-10.302h-28.845v-20.604z" fill="#d8ecfe"/><path d="m369.32 99.928v20.604h-10.971c-5.676 0-10.302 4.626-10.302 10.302v43.829h-166.22v-43.829c0-5.676-4.626-10.302-10.302-10.302h-28.845v-20.604z" fill="#d8ecfe"/><path d="m369.32 99.93h-10.97c-17.07 0-30.91 13.84-30.91 30.9v86.68c0 5.37-2.17 10.22-5.69 13.74-1.03 1.03-2.18 1.95-3.43 2.73-2.98 1.87-6.52 2.96-10.3 2.96-10.73 0-19.43-8.7-19.43-19.43v-20.36c0-8.7-4.94-16.24-12.17-19.97-3.09-1.61-6.59-2.51-10.31-2.51-12.41 0-22.47 10.07-22.47 22.48v58.34c0 11.38-9.23 20.6-20.61 20.6-11.37 0-20.6-9.22-20.6-20.6v-124.66c0-17.06-13.84-30.9-30.9-30.9h-28.85v-28.55c0-27.6 22.37-49.97 49.96-49.97 7.04 0 13.73 1.46 19.8 4.09.79-1.4 1.64-2.76 2.56-4.07 9.02-12.95 24.02-21.43 41-21.43 3.52 0 6.95.36 10.26 1.06.01.01.02.01.03.01 14.61 3.05 26.87 12.5 33.74 25.27 5.89-2.44 12.34-3.79 19.11-3.79 27.22 0 49.33 21.76 49.94 48.83z" fill="#fff9e2"/><g fill="#fff5c6"><path d="m163.284 71.381v28.546h-20.604v-28.546c0-27.599 22.365-49.964 49.964-49.964 3.544 0 6.995.371 10.322 1.061-22.664 4.739-39.682 24.828-39.682 48.903z"/><path d="m233.336 273.317c-3.029 1.762-6.552 2.771-10.302 2.771-11.384 0-20.604-9.22-20.604-20.604v-124.651c0-17.07-13.835-30.905-30.905-30.905h20.604c17.07 0 30.905 13.835 30.905 30.905v124.652c0 7.623 4.142 14.278 10.302 17.832z"/><path d="m266.29 1.07c-14.27 2.99-26.3 12.09-33.24 24.43-5.58-2.41-11.66-3.84-18.06-4.04 0-.01 0-.02.01-.03 9.02-12.95 24.02-21.43 41-21.43 3.52 0 6.95.36 10.26 1.06.01.01.02.01.03.01z"/></g><path d="m359.137 512h-206.274c-4.91 0-8.294-4.923-6.535-9.508l8.467-22.068c1.762-4.595 3.41-9.23 4.945-13.887h9.26 174 9.26c1.535 4.656 3.183 9.292 4.945 13.887l8.467 22.068c1.759 4.585-1.625 9.508-6.535 9.508z" fill="#eaf6ff"/><path d="m200.947 466.538c-1.535 4.656-3.183 9.292-4.945 13.887l-12.115 31.575h-31.024c-4.91 0-8.294-4.923-6.535-9.508l8.467-22.068c1.762-4.595 3.41-9.23 4.945-13.887h41.207z" fill="#d8ecfe"/></g></svg>