<svg id="Capa_1" enable-background="new 0 0 512 512" height="512" viewBox="0 0 512 512" width="512" xmlns="http://www.w3.org/2000/svg"><g><path d="m323.969 134c-24.865 0-48.117 6.89-67.969 18.85-19.851-11.96-43.104-18.85-67.969-18.85-72.85 0-131.906 59.057-131.906 131.906 0 19.608 4.736 38.992 13.192 56.648 24.329 50.798 48.645 101.608 72.993 152.394 11.053 21.973 33.792 37.052 60.065 37.052 21.903 0 41.353-10.481 53.625-26.696 12.272 16.215 31.722 26.696 53.625 26.696 26.273 0 49.012-15.079 60.066-37.051 24.347-50.786 48.663-101.596 72.993-152.394 8.456-17.656 13.192-37.04 13.192-56.648-.001-72.851-59.057-131.907-131.907-131.907z" fill="#fd8087"/><g><path d="m193.491 474.949c-24.347-50.786-48.663-101.596-72.993-152.394-8.456-17.656-13.192-37.04-13.192-56.648 0-64.082 45.699-117.482 106.283-129.41-8.27-1.626-16.812-2.496-25.559-2.496-72.85 0-131.906 59.057-131.906 131.906 0 19.608 4.736 38.992 13.192 56.648 24.329 50.798 48.645 101.608 72.993 152.394 11.054 21.972 33.793 37.051 60.066 37.051 9.061 0 17.7-1.798 25.587-5.05-14.976-6.177-27.23-17.61-34.471-32.001z" fill="#fe646f"/></g><path d="m399.156 15.435c0 23.37-9.469 44.528-24.793 59.842-15.314 15.324-36.472 24.793-59.852 24.793h-33.851c-4.156 0-7.442-3.521-7.155-7.657l.379-5.364c3.071-44.365 39.953-78.779 84.43-78.779h33.678c.276 0 .553.02.819.051 3.561.399 6.345 3.429 6.345 7.114z" fill="#57be92"/><path d="m392.81 8.321c-46.934 1.453-85.423 38.253-88.688 85.402l-.44 6.347h-23.022c-4.156 0-7.442-3.521-7.155-7.657l.379-5.364c3.071-44.365 39.953-78.779 84.43-78.779h33.678c.275 0 .552.02.818.051z" fill="#22b27f"/><path d="m240.219 67.506v116.432h33.78v-116.432c0-20.204-10.202-38.699-27.29-49.478l-24.45-15.422c-7.888-4.976-18.32-2.614-23.296 5.275-4.976 7.89-2.615 18.321 5.276 23.297l24.45 15.422c7.219 4.553 11.53 12.369 11.53 20.906z" fill="#dc8758"/><g><path d="m276.985 191.615h-41.969c-14.653 0-28.429-5.706-38.791-16.067-2.998-2.998-2.998-7.859 0-10.857 2.998-2.999 7.859-2.998 10.857-.001 7.462 7.461 17.382 11.571 27.934 11.571h41.969c10.551 0 20.472-4.11 27.934-11.571 2.998-2.998 7.86-2.997 10.857.001 2.998 2.998 2.998 7.859 0 10.857-10.362 10.361-24.138 16.067-38.791 16.067z" fill="#fe646f"/></g></g></svg>