<svg id="Capa_1" enable-background="new 0 0 512 512" height="512" viewBox="0 0 512 512" width="512" xmlns="http://www.w3.org/2000/svg"><g><path d="m203.212 399.001h105.576v81.721h-105.576z" fill="#7a6d79"/><path d="m280.217 69.043h-48.434v-45.542c0-12.979 10.522-23.501 23.501-23.501h1.432c12.979 0 23.501 10.522 23.501 23.501z" fill="#b3dafe"/><path d="m359.05 357.78v31.22c0 11.04-8.96 20-20 20h-166.1c-11.04 0-20-8.96-20-20v-31.22z" fill="#a79ba7"/><path d="m225.09 409h-52.14c-11.04 0-20-8.96-20-20v-31.22h51.53v30.61c0 11.39 9.22 20.61 20.61 20.61z" fill="#7a6d79"/><path d="m470.32 256.42v40.6h-428.64v-40.6c0-99.88 70.4-183.31 164.27-203.38 14.09-3.02 28.72-4.61 43.71-4.61h12.68c114.86 0 207.98 93.12 207.98 207.99z" fill="#eaf6ff"/><path d="m470.33 266.41v30.61h-428.65v-40.6c0-99.88 70.4-183.31 164.27-203.38-64.24 37.11-112.75 109.74-112.75 189.1 0 6.7 2.72 12.77 7.11 17.16 4.39 4.4 10.45 7.11 17.16 7.11z" fill="#d8ecfe"/><path d="m308.79 408.999v20.609h-59.21c-8.537 0-15.457 6.92-15.457 15.457v35.637h-30.913v-71.703z" fill="#685e68"/><path d="m475.449 367.779h-438.898c-9.419 0-17.64-6.386-19.969-15.513l-14.355-56.249c-1.164-4.561 2.282-8.997 6.989-8.997h493.568c4.707 0 8.153 4.436 6.989 8.997l-14.354 56.249c-2.33 9.127-10.55 15.513-19.97 15.513z" fill="#b3dafe"/><path d="m88.076 367.776h-51.522c-9.418 0-17.641-6.378-19.97-15.508l-14.357-56.252c-1.164-4.561 2.282-8.997 6.989-8.997h42.238l16.652 65.248c2.329 9.131 10.552 15.509 19.97 15.509z" fill="#8ac9fe"/><path d="m400.26 490.78v21.22h-288.52v-21.22c0-11.04 8.95-20 20-20h248.52c11.05 0 20 8.96 20 20z" fill="#a79ba7"/><path d="m183.87 470.78c-11.39 0-20.61 9.22-20.61 20.61v20.61h-51.52v-21.22c0-11.04 8.95-20 20-20z" fill="#7a6d79"/></g></svg>