<svg id="Capa_1" enable-background="new 0 0 512 512" height="512" viewBox="0 0 512 512" width="512" xmlns="http://www.w3.org/2000/svg"><g><path d="m512 293.038c0 34.198-9.982 66.067-27.187 92.848-6.691 10.414-14.474 10.059-23.187 18.772-31.119 31.129-74.123 50.385-121.62 50.385l-12.494 10h-56.247v-65.756h56.247c3.437 0 6.807 9.715 10.089 9.168 13.949-2.326 36.292-19.394 45.304-29.501 3.382-3.786 6.297-7.998 8.656-12.544 1.735-3.344-6.832-6.87-5.736-10.541 1.648-5.518 12.533-11.365 12.533-17.417 0-16.805-6.68-35.774-17.69-46.785-.82-.82-11.796 2.143-12.662 1.37-1.883-1.68-2.871-8.245-4.953-9.684-7.311-5.051-16.782-8.542-25.933-9.994-3.129-.496-6.338 4.246-9.607 4.246l-11.361-10h-104.354c-50.527 0-81.497-30.96-81.497-81.497v-58.065c0-3.866 36.646.116 36.646.116l4.186-7.116h156.379l12.494 10c47.231 0 80.013 19.037 111.095 49.855 2.287 2.268 14.511-5.4 16.669-3.008 27.493 30.488 44.23 70.865 44.23 115.148z" fill="#fd8087"/><g><g><path d="m243.992 326.191c-4.211 0-7.625-3.413-7.625-7.625v-40.958c0-4.211 3.414-7.625 7.625-7.625s7.625 3.413 7.625 7.625v40.958c0 4.211-3.414 7.625-7.625 7.625z" fill="#cbc4cc"/></g><g><path d="m285.754 326.191c-4.211 0-7.625-3.413-7.625-7.625v-40.958c0-4.211 3.413-7.625 7.625-7.625s7.625 3.413 7.625 7.625v40.958c0 4.211-3.413 7.625-7.625 7.625z" fill="#cbc4cc"/></g><g><path d="m327.516 326.191c-4.211 0-7.625-3.413-7.625-7.625v-40.958c0-4.211 3.413-7.625 7.625-7.625s7.625 3.413 7.625 7.625v40.958c0 4.211-3.414 7.625-7.625 7.625z" fill="#cbc4cc"/></g></g><g><path d="m120.512 199.865h-27.621c-51.22 0-92.891-41.67-92.891-92.89s41.671-92.891 92.891-92.891h151.102c4.211 0 7.625 3.413 7.625 7.625s-3.414 7.625-7.625 7.625h-151.102c-42.811 0-77.641 34.83-77.641 77.642 0 42.811 34.83 77.641 77.641 77.641h27.621c4.211 0 7.625 3.413 7.625 7.625 0 4.21-3.414 7.623-7.625 7.623z" fill="#cbc4cc"/></g><g><path d="m120.303 155.396h-28.038c-25.054 0-45.436-20.383-45.436-45.437s20.383-45.436 45.436-45.436h223.888c4.211 0 7.625 3.413 7.625 7.625 0 4.211-3.413 7.625-7.625 7.625h-223.888c-16.645 0-30.187 13.542-30.187 30.186 0 16.645 13.542 30.187 30.187 30.187h28.038c4.211 0 7.625 3.413 7.625 7.625s-3.414 7.625-7.625 7.625z" fill="#cbc4cc"/></g><path d="m194.177 432.162 6.073-10h74l7.019 10v35.255c0 16.844-13.655 30.499-30.499 30.499h-76.129c-5.114 0-8.502-5.306-6.35-9.945z" fill="#fd8087"/><path d="m439.188 318.119c0 33.6-27.236 60.835-60.845 60.835h-5.439c9.607-10.756 15.453-24.948 15.453-40.503 0-16.805-6.811-32.014-17.822-43.024-11.01-11.01-26.219-17.822-43.024-17.822h-115.713c-50.527 0-91.497-40.96-91.497-91.497v-58.065c0-3.866 3.134-7 7-7h43.832v44.732c0 50.537 40.97 91.497 91.497 91.497h115.714c6.354 0 12.484.976 18.238 2.786 9.465 2.969 17.944 8.194 24.785 15.036 11.01 11.011 17.821 26.22 17.821 43.025z" fill="#fe646f"/><path d="m416.802 365.26c-10.481 8.56-23.871 13.694-38.459 13.694h-5.439c5.866-6.567 10.329-14.426 12.911-23.088h.01z" fill="#fd8087"/><path d="m396.581 260.059-28.578 32.98c-10.756-9.597-24.938-15.433-40.492-15.433v-20.333h50.832c6.354 0 12.484.976 18.238 2.786z" fill="#fd8087"/><path d="m484.815 385.877v.01c-6.69 10.41-14.477 20.058-23.19 28.771-31.119 31.129-74.123 50.385-121.62 50.385h-12.494v-65.756c27.551 0 50.822-18.309 58.314-43.42z" fill="#fe99a0"/><path d="m416.802 365.26c-10.481 8.56-23.871 13.694-38.459 13.694h-5.439c5.866-6.567 10.329-14.426 12.911-23.088h.01z" fill="#fd8087"/><path d="m467.766 177.894-99.763 115.144c-10.756-9.597-24.938-15.433-40.492-15.433v-156.561h12.494c50.71 0 96.296 21.949 127.761 56.85z" fill="#fe99a0"/><path d="m396.581 260.059-28.578 32.98c-10.756-9.597-24.938-15.433-40.492-15.433v-20.333h50.832c6.354 0 12.484.976 18.238 2.786z" fill="#fd8087"/><circle cx="201.643" cy="175.22" fill="#eaf6ff" r="20.333"/><path d="m194.177 432.162h87.092v-35.255c0-16.844-13.655-30.499-30.499-30.499h-76.129c-5.114 0-8.502 5.306-6.35 9.945z" fill="#fe99a0"/></g></svg>