<svg id="Capa_1" enable-background="new 0 0 512 512" height="512" viewBox="0 0 512 512" width="512" xmlns="http://www.w3.org/2000/svg"><g><path d="m309.46 512h-106.92l-10.348-81.497h127.616z" fill="#a79ba7"/><circle cx="256" cy="228.673" fill="#cbc4cc" r="228.673"/><path d="m266 457.13c-3.32.15-6.65.22-10 .22-126.29 0-228.67-102.38-228.67-228.68 0-126.29 102.38-228.67 228.67-228.67 3.35 0 6.68.07 10 .22-121.65 5.23-218.67 105.51-218.67 228.45 0 122.95 97.02 223.23 218.67 228.46z" fill="#b5adb6"/><circle cx="256" cy="228.673" fill="#b5adb6" r="185.116"/><path d="m271 413.19c-4.95.4-9.95.6-15 .6-102.07 0-185.12-83.04-185.12-185.12 0-102.07 83.05-185.11 185.12-185.11 5.05 0 10.05.2 15 .6-95.08 7.66-170.12 87.49-170.12 184.51 0 97.03 75.04 176.86 170.12 184.52z" fill="#a79ba7"/><path d="m290.842 342.719c-15.783 0-30.951-4.753-43.866-13.745-11.458-7.979-24.528-12.197-37.799-12.197h-.12c-1.483 0-2.984-.043-4.461-.127-18.77-1.063-36.49-9.034-49.897-22.446-13.408-13.414-21.372-31.139-22.424-49.91-1.723-30.763 14.955-59.512 42.488-73.242 12.907-6.436 23.416-16.797 30.392-29.966 13.368-25.233 39.394-40.919 67.921-40.938 19.998 0 38.953 7.701 53.424 21.685 14.479 13.99 22.816 32.673 23.479 52.606.135 4.038-.046 8.104-.537 12.083-1.744 14.115 1.243 28.882 8.41 41.581 6.924 12.269 10.324 26.248 9.836 40.429-1.377 39.982-33.765 72.543-73.734 74.126-1.041.041-2.076.062-3.107.062-.003-.001-.004-.001-.005-.001z" fill="#a79ba7"/><path d="m339.515 185.297c.424-3.434.587-6.95.469-10.526-1.191-35.844-31.038-64.648-66.901-64.624-25.626.017-47.875 14.445-59.091 35.618-7.813 14.749-19.829 26.787-34.766 34.235-23.046 11.492-38.527 35.889-36.966 63.733 1.89 33.732 29.173 61.022 62.904 62.933 1.324.075 2.639.111 3.946.11 15.605-.015 30.775 5.073 43.581 13.99 11.506 8.012 25.646 12.501 40.866 11.898 34.76-1.377 62.939-29.712 64.136-64.478.441-12.807-2.722-24.84-8.551-35.169-8.167-14.468-11.664-31.231-9.627-47.72z" fill="#eaf6ff"/><circle cx="256" cy="228.673" fill="#ffe177" r="39.256"/></g></svg>