<svg id="Capa_1" enable-background="new 0 0 512 512" height="512" viewBox="0 0 512 512" width="512" xmlns="http://www.w3.org/2000/svg"><g><g><g><path d="m505.799 280.637v39.644c0 40.344-32.819 73.163-73.163 73.163h-59.458c8.372-12.521 14.539-26.642 17.956-41.807h41.502c17.287 0 31.355-14.068 31.355-31.355v-39.644c0-17.287-14.068-31.356-31.355-31.356h-38.408s-.01-41.41-.031-41.807h38.439c40.344-.001 73.163 32.817 73.163 73.162z" fill="#b3dafe"/></g></g><path d="m404.23 207.34v121.95c0 66.27-53.73 120-120 120l-9.897 10h-74.667l-13.707-10c-66.27 0-120-53.73-120-120v-121.95c0-16.57 13.43-30 30-30h278.27c16.571 0 30.001 13.43 30.001 30z" fill="#eaf6ff"/><path d="m459.383 512h-406.766c-17.297 0-32.767-9.072-38.775-22.74l-13.06-29.711c-2.125-4.835 1.416-10.26 6.698-10.26h497.04c5.282 0 8.823 5.425 6.698 10.26l-13.06 29.711c-6.008 13.668-21.477 22.74-38.775 22.74z" fill="#b3dafe"/><path d="m104.877 511.998h-52.259c-17.298 0-32.766-9.072-38.776-22.743l-13.06-29.707c-2.125-4.835 1.416-10.261 6.698-10.261h41.051l17.57 39.968c6.009 13.671 21.478 22.743 38.776 22.743z" fill="#8ac9fe"/><path d="m243.65 449.29h-57.69c-66.27 0-120-53.73-120-120v-121.95c0-16.57 13.43-30 30-30h52.81c-16.95.43-30.55 14.31-30.55 31.35v115.18c0 69.27 56.15 125.42 125.43 125.42z" fill="#d8ecfe"/><g><g><path d="m234.692 141.105c-3.067 0-5.979-1.812-7.236-4.819-12.581-30.103-5.633-46.149.497-60.307 5.625-12.991 10.482-24.212-.418-48.558-1.77-3.952-.001-8.589 3.95-10.358 3.953-1.771 8.588-.001 10.358 3.95 13.723 30.648 6.697 46.877.497 61.195-5.595 12.923-10.427 24.084-.418 48.034 1.67 3.994-.215 8.586-4.21 10.255-.988.412-2.012.608-3.02.608z" fill="#cbc4cc"/></g><g><path d="m155.391 124.73c-3.067 0-5.979-1.812-7.236-4.819-12.581-30.104-5.633-46.15.497-60.308 5.624-12.991 10.482-24.212-.418-48.558-1.77-3.951-.001-8.588 3.951-10.357 3.951-1.772 8.588-.002 10.357 3.951 13.722 30.646 6.697 46.875.497 61.193-5.595 12.923-10.427 24.084-.418 48.035 1.67 3.994-.215 8.586-4.21 10.255-.988.412-2.013.608-3.02.608z" fill="#cbc4cc"/></g><g><path d="m313.994 124.73c-3.067 0-5.979-1.812-7.236-4.819-12.581-30.103-5.633-46.15.497-60.308 5.625-12.991 10.482-24.212-.418-48.557-1.77-3.952-.001-8.589 3.95-10.358 3.953-1.772 8.589 0 10.358 3.95 13.723 30.647 6.697 46.876.497 61.194-5.595 12.923-10.427 24.084-.418 48.035 1.67 3.994-.215 8.586-4.21 10.255-.987.412-2.012.608-3.02.608z" fill="#cbc4cc"/></g></g><g><path d="m206.53 177.34v45.48c0 4.33-3.51 7.84-7.84 7.84s-7.84-3.51-7.84-7.84v-45.48z" fill="#d8ecfe"/></g><path d="m239.87 348.239h-82.36c-7.117 0-12.886-5.769-12.886-12.886v-99.65c0-7.117 5.769-12.886 12.886-12.886h41.18 41.18c7.117 0 12.886 5.769 12.886 12.886v99.65c0 7.117-5.769 12.886-12.886 12.886z" fill="#d8ecfe"/><g><path d="m188.69 230.656c-4.33 0-7.839-3.509-7.839-7.839v-70.027c0-4.33 3.509-7.839 7.839-7.839s7.839 3.509 7.839 7.839v70.027c0 4.33-3.509 7.839-7.839 7.839z" fill="#cbc4cc"/></g><path d="m229.87 348.239h-82.36c-7.117 0-12.886-5.769-12.886-12.886v-99.65c0-7.117 5.769-12.886 12.886-12.886h41.18 41.18c7.117 0 12.886 5.769 12.886 12.886v99.65c0 7.117-5.769 12.886-12.886 12.886z" fill="#fece85"/></g></svg>