<svg id="Capa_1" enable-background="new 0 0 512 512" height="512" viewBox="0 0 512 512" width="512" xmlns="http://www.w3.org/2000/svg"><g><path d="m431.5 120.95c-13.22 32.02-44.15 51.37-76.77 51.37-10.55 0-21.28-2.03-31.64-6.3l-19-7.84-9.73-4.02 2.56-5.15c15.06-30.36 46.38-47.63 78.5-46.03 9.23.45 18.53 2.47 27.53 6.18z" fill="#57be92"/><path d="m375.42 102.98c-4.16 11.85-10.93 22.47-19.63 31.17-13.48 13.48-31.56 22.35-51.7 24.03l-9.73-4.02 2.56-5.15c15.06-30.36 46.38-47.63 78.5-46.03z" fill="#22b27f"/><path d="m287.086 148.471h-31.086l.398-5.742c3.017-43.517 39.199-77.277 82.82-77.277h30.887c0 45.85-37.169 83.019-83.019 83.019z" fill="#57be92"/><path d="m339.218 65.451c-43.622 0-79.803 33.76-82.82 77.277l-.398 5.743h27.771l.398-5.743c3.017-43.517 39.199-77.277 82.82-77.277z" fill="#22b27f"/><path d="m217.64 154.16-9.72 4.01-19.01 7.85c-10.36 4.27-21.09 6.3-31.64 6.3-32.62 0-63.55-19.35-76.77-51.37l28.55-11.79c9-3.71 18.3-5.73 27.53-6.18 32.13-1.6 63.45 15.67 78.5 46.03z" fill="#57be92"/><path d="m217.64 154.16-9.72 4.01c-20.14-1.67-38.23-10.54-51.71-24.02-8.7-8.7-15.47-19.32-19.63-31.17 32.13-1.6 63.45 15.67 78.5 46.03z" fill="#22b27f"/><path d="m224.915 148.471h31.086l-.398-5.742c-3.017-43.517-39.199-77.277-82.82-77.277h-30.887c0 45.85 37.169 83.019 83.019 83.019z" fill="#57be92"/><path d="m172.783 65.451c43.622 0 79.803 33.76 82.82 77.277l.398 5.743h-27.771l-.398-5.743c-3.017-43.517-39.199-77.277-82.82-77.277z" fill="#22b27f"/><path d="m260.788 31.204c8.355 10.262 13.029 23.111 13.029 36.743v117.194h-34.507v-117.194c0-8.593-4.402-16.455-11.774-21.04l-24.981-15.527c-8.062-5.008-10.467-15.507-5.385-23.451 5.082-7.934 15.737-10.314 23.799-5.306l5.636 3.503z" fill="#dc8758"/><path d="m320.401 143.332-64.4.016-64.4-.016c-67.58-.017-122.374 54.774-122.374 122.355v2.106c0 38.084 16.908 73.654 46.041 97.381l.164.134c27.72 22.577 48.678 52.361 60.571 86.076 10.072 35.846 42.762 60.616 79.997 60.616 37.236 0 69.925-24.77 79.998-60.617 11.893-33.715 32.851-63.498 60.571-86.076l.164-.134c29.132-23.727 46.041-59.297 46.041-97.381v-2.106c.001-67.58-54.793-122.371-122.373-122.354z" fill="#fd8087"/><path d="m257.34 495.128c7.326 5.554 15.569 9.891 24.42 12.776-8.16 2.669-16.826 4.091-25.759 4.091-18.619 0-36.104-6.193-50.179-16.867-14.095-10.675-24.78-25.821-29.819-43.749-11.89-33.714-32.848-63.491-60.575-86.067l-.165-.134c-29.128-23.729-46.037-59.298-46.037-97.39v-2.102c0-67.582 54.795-122.366 122.377-122.356l50.272.021c-67.005.649-121.13 55.176-121.13 122.336v2.102c0 38.093 16.908 73.661 46.037 97.39l.165.134c27.727 22.576 48.685 52.353 60.575 86.067 5.037 17.927 15.722 33.073 29.818 43.748z" fill="#fe646f"/><g><g><g><path d="m128.106 280.021c-4.268 0-7.728-3.459-7.728-7.728v-16.08c0-4.268 3.46-7.728 7.728-7.728s7.728 3.459 7.728 7.728v16.08c0 4.269-3.46 7.728-7.728 7.728z" fill="#fe646f"/></g><g><path d="m192.053 280.021c-4.268 0-7.728-3.459-7.728-7.728v-16.08c0-4.268 3.46-7.728 7.728-7.728s7.728 3.459 7.728 7.728v16.08c0 4.269-3.46 7.728-7.728 7.728z" fill="#fe646f"/></g><g><path d="m256 280.021c-4.268 0-7.728-3.459-7.728-7.728v-16.08c0-4.268 3.46-7.728 7.728-7.728s7.728 3.459 7.728 7.728v16.08c0 4.269-3.46 7.728-7.728 7.728z" fill="#fe646f"/></g><g><path d="m319.947 280.021c-4.268 0-7.728-3.459-7.728-7.728v-16.08c0-4.268 3.46-7.728 7.728-7.728s7.728 3.459 7.728 7.728v16.08c0 4.269-3.46 7.728-7.728 7.728z" fill="#fe646f"/></g><g><path d="m383.895 280.021c-4.268 0-7.728-3.459-7.728-7.728v-16.08c0-4.268 3.46-7.728 7.728-7.728s7.728 3.459 7.728 7.728v16.08c-.001 4.269-3.461 7.728-7.728 7.728z" fill="#fe646f"/></g></g><g><g><path d="m157.987 218.25c-4.268 0-7.728-3.459-7.728-7.728v-16.08c0-4.268 3.46-7.728 7.728-7.728s7.728 3.459 7.728 7.728v16.08c0 4.268-3.46 7.728-7.728 7.728z" fill="#fe646f"/></g><g><path d="m221.934 218.25c-4.268 0-7.728-3.459-7.728-7.728v-16.08c0-4.268 3.46-7.728 7.728-7.728s7.728 3.459 7.728 7.728v16.08c0 4.268-3.46 7.728-7.728 7.728z" fill="#fe646f"/></g><g><path d="m285.881 218.25c-4.268 0-7.728-3.459-7.728-7.728v-16.08c0-4.268 3.46-7.728 7.728-7.728s7.728 3.459 7.728 7.728v16.08c0 4.268-3.46 7.728-7.728 7.728z" fill="#fe646f"/></g><g><path d="m349.828 218.25c-4.268 0-7.728-3.459-7.728-7.728v-16.08c0-4.268 3.46-7.728 7.728-7.728s7.728 3.459 7.728 7.728v16.08c0 4.268-3.46 7.728-7.728 7.728z" fill="#fe646f"/></g></g><g><g><path d="m157.987 340.144c-4.268 0-7.728-3.459-7.728-7.728v-16.08c0-4.268 3.46-7.728 7.728-7.728s7.728 3.459 7.728 7.728v16.08c0 4.269-3.46 7.728-7.728 7.728z" fill="#fe646f"/></g><g><path d="m221.934 340.144c-4.268 0-7.728-3.459-7.728-7.728v-16.08c0-4.268 3.46-7.728 7.728-7.728s7.728 3.459 7.728 7.728v16.08c0 4.269-3.46 7.728-7.728 7.728z" fill="#fe646f"/></g><g><path d="m285.881 340.144c-4.268 0-7.728-3.459-7.728-7.728v-16.08c0-4.268 3.46-7.728 7.728-7.728s7.728 3.459 7.728 7.728v16.08c0 4.269-3.46 7.728-7.728 7.728z" fill="#fe646f"/></g><g><path d="m349.828 340.144c-4.268 0-7.728-3.459-7.728-7.728v-16.08c0-4.268 3.46-7.728 7.728-7.728s7.728 3.459 7.728 7.728v16.08c0 4.269-3.46 7.728-7.728 7.728z" fill="#fe646f"/></g></g><g><path d="m192.053 393.902c-4.268 0-7.728-3.459-7.728-7.728v-16.08c0-4.268 3.46-7.728 7.728-7.728s7.728 3.459 7.728 7.728v16.08c0 4.269-3.46 7.728-7.728 7.728z" fill="#fe646f"/></g><g><path d="m256 393.902c-4.268 0-7.728-3.459-7.728-7.728v-16.08c0-4.268 3.46-7.728 7.728-7.728s7.728 3.459 7.728 7.728v16.08c0 4.269-3.46 7.728-7.728 7.728z" fill="#fe646f"/></g><g><path d="m319.947 393.902c-4.268 0-7.728-3.459-7.728-7.728v-16.08c0-4.268 3.46-7.728 7.728-7.728s7.728 3.459 7.728 7.728v16.08c0 4.269-3.46 7.728-7.728 7.728z" fill="#fe646f"/></g><g><g><path d="m224.027 450.916c-4.268 0-7.728-3.459-7.728-7.728v-16.08c0-4.268 3.46-7.728 7.728-7.728s7.728 3.459 7.728 7.728v16.08c0 4.268-3.46 7.728-7.728 7.728z" fill="#fe646f"/></g><g><path d="m287.974 450.916c-4.268 0-7.728-3.459-7.728-7.728v-16.08c0-4.268 3.46-7.728 7.728-7.728s7.728 3.459 7.728 7.728v16.08c-.001 4.268-3.46 7.728-7.728 7.728z" fill="#fe646f"/></g></g></g></g></svg>