<svg id="Capa_1" enable-background="new 0 0 512 512" height="512" viewBox="0 0 512 512" width="512" xmlns="http://www.w3.org/2000/svg"><g><path d="m373.09 184.52c0 4.53-.26 9-.77 13.4l-9.12 89.51-10.948 9.295-16.927 166.033 9.045 9.372-3.42 33.58c-.36 3.57-3.37 6.29-6.96 6.29h-154.8c-3.59 0-6.6-2.72-6.96-6.29l-3.42-33.58 9.146-8.375-16.951-166.255-11.025-10.06v-.01l-9.16-89.78c-.48-4.31-.74-8.69-.74-13.13 0-64.35 52.16-116.51 116.51-116.51 64.34 0 116.5 52.16 116.5 116.51z" fill="#eaf6ff"/><path d="m191.593 184.516c0 4.44.258 8.818.742 13.135l10.394 101.957 17.575 172.514 4.069 39.878h-45.185c-3.592 0-6.6-2.718-6.964-6.291l-3.419-33.587-27.98-274.471c-.484-4.316-.742-8.695-.742-13.135 0-64.345 52.158-116.503 116.503-116.503 8.849 0 17.472.989 25.755 2.864-51.951 11.713-90.748 58.143-90.748 113.639z" fill="#d8ecfe"/><path d="m220.3 472.12v.01h-51.49l-18.83-184.69v-.01c18.81 9.6 36.17 12.64 52.75 12.16v.02z" fill="#fe646f"/><path d="m282.34 70.88c-1.15.26-2.29.54-3.43.83-16.61 4.28-31.78 12.13-44.65 22.69v-24.24c7.22-1.41 14.69-2.15 22.33-2.15 7.63 0 15.1.74 22.32 2.15 1.15.22 2.29.46 3.43.72z" fill="#b5adb6"/><path d="m234.26 7v298.108l44.653-12.415v-285.693c0-3.866-3.134-7-7-7h-30.653c-3.866 0-7 3.134-7 7z" fill="#cbc4cc"/><path d="m278.91 70.16v1.55c-16.61 4.28-31.78 12.13-44.65 22.69v-24.24c7.22-1.41 14.69-2.15 22.33-2.15 7.63 0 15.1.74 22.32 2.15z" fill="#b5adb6"/><path d="m363.2 287.43-18.83 184.7h-175.56l-18.83-184.69v-.01c80.23 40.92 134.01-37.23 213.22 0z" fill="#fd8087"/><path d="m220.3 472.12v.01h-51.49l-18.83-184.69v-.01c18.81 9.6 36.17 12.64 52.75 12.16v.02z" fill="#fe646f"/><path d="m378.791 210.61h-245.582c-12.33 0-22.326-9.996-22.326-22.326 0-12.33 9.995-22.326 22.326-22.326h245.582c12.33 0 22.326 9.995 22.326 22.326-.001 12.33-9.996 22.326-22.326 22.326z" fill="#b3dafe"/><path d="m183.001 210.61h-49.789c-12.329 0-22.324-9.995-22.324-22.324 0-12.329 9.995-22.324 22.324-22.324h49.789c-11.383 0-20.604 9.22-20.604 20.604v3.441c.001 11.383 9.221 20.603 20.604 20.603z" fill="#8ac9fe"/></g></svg>