<svg id="Capa_1" enable-background="new 0 0 512 512" height="512" viewBox="0 0 512 512" width="512" xmlns="http://www.w3.org/2000/svg"><g><path d="m412.47 77.404-10.124-52.364c-2.81-14.538-15.536-25.04-30.343-25.04h-232.013c-14.807 0-27.533 10.502-30.344 25.039l-10.123 52.365 12.687 10h284.79z" fill="#fec165"/><path d="m412.466 77.408h-312.948l10.127-52.364c2.812-14.547 15.535-25.044 30.349-25.044h22.376c-.515 1.432-.917 2.915-1.216 4.44l-3.015 15.591c-3.688 19.069 10.921 36.773 30.343 36.773h220.008z" fill="#fdb441"/><path d="m381.52 512h-251.046c-3.639 0-6.672-2.789-6.976-6.416l-29.391-350.777 18.103-10h287.79l17.898 10-29.403 350.778c-.304 3.626-3.336 6.415-6.975 6.415z" fill="#eaf6ff"/><path d="m416.165 175.409h-236.944c-18.086 0-32.307 15.462-30.798 33.485l25.392 303.106h-43.34c-3.639 0-6.672-2.789-6.976-6.416l-29.39-350.779h323.786z" fill="#d8ecfe"/><path d="m444.299 77.404h-376.594c-3.866 0-7 3.134-7 7v63.404c0 3.866 3.134 7 7 7h376.594c3.866 0 7-3.134 7-7v-63.404c0-3.866-3.134-7-7-7z" fill="#fece85"/><path d="m112.21 77.408v77.397h-44.509c-3.866 0-7-3.134-7-7v-63.397c0-3.866 3.134-7 7-7z" fill="#fec165"/><path d="m412.663 395.836 12.269-145.633c.344-4.083-2.878-7.588-6.975-7.588h-323.91c-4.098 0-7.319 3.504-6.975 7.587l12.258 145.634c.305 3.626 3.337 6.413 6.975 6.413h299.382c3.639 0 6.671-2.788 6.976-6.413z" fill="#fece85"/><path d="m164.615 402.244h-58.311c-3.638 0-6.67-2.787-6.975-6.413l-12.256-145.626c-.344-4.083 2.878-7.587 6.975-7.587h57.195z" fill="#fec165"/><g><g><path d="m189.63 41.803h-37.913c-4.268 0-7.726-3.459-7.726-7.726s3.459-7.726 7.726-7.726h37.913c4.268 0 7.726 3.459 7.726 7.726s-3.458 7.726-7.726 7.726z" fill="#fece85"/></g></g><g><g><path d="m120.091 464.9c.237-.031.474-.041.721-.041h270.453c.216 0 .422.01.639.031l-1.288 15.422h-269.238z" fill="#b3dafe"/></g></g></g></svg>