<svg id="Capa_1" enable-background="new 0 0 512 512" height="512" viewBox="0 0 512 512" width="512" xmlns="http://www.w3.org/2000/svg"><g><path d="m292.631 77.057h-35.854l.821-11.846c2.547-36.723 33.079-65.211 69.89-65.211h28.2c3.866 0 7 3.134 7 7 0 38.691-31.366 70.057-70.057 70.057z" fill="#57be92"/><circle cx="255.993" cy="78.483" fill="#fd8087" r="37.622"/><path d="m372.083 164.76h-37.44c14.635 0 26.5-11.865 26.5-26.5 0-13.8-11.19-25-25-25h-158.8c-14.635 0-26.5 11.865-26.5 26.5 0 13.81 11.2 25 25 25h-41.01c-14.221 0-25.75 11.529-25.75 25.75s11.529 25.75 25.75 25.75h237.25c14.221 0 25.75-11.529 25.75-25.75 0-14.221-11.528-25.75-25.75-25.75z" fill="#fef7ed"/><path d="m428.113 276.26v46.04h-344.24v-46.04c0-33.14 26.87-60 60-60l10.37-10h202l11.87 10c33.13 0 60 26.86 60 60z" fill="#dc8758"/><path d="m197.173 216.26c-34.12 0-61.8 27.67-61.8 61.8v44.24h-51.5v-46.04c0-33.14 26.87-60 60-60z" fill="#d77f4a"/><path d="m202 125.667v-12.407h-23.994c-13.185 0-24.77 9.382-26.837 22.404-2.48 15.623 9.532 29.096 24.674 29.096h158.8c9.742 0 18.252-5.261 22.856-13.094h-129.499c-14.359.001-26-11.64-26-25.999z" fill="#fff0dc"/><path d="m159 176.333v-11.573h-23.587c-14.436 0-26.599 11.814-26.325 26.248.265 13.992 11.69 25.252 25.745 25.252h237.25c9.958 0 18.589-5.656 22.873-13.927h-209.956c-14.359 0-26-11.64-26-26z" fill="#fff0dc"/><path d="m440 308.099c.892 1.504 1.188 3.288.831 5l-36.085 172.86c-3.188 15.272-15.074 26.041-28.744 26.041h-29.566l-28.276-10-27.256 10h-65.158l-27.919-10-27.613 10h-34.227c-13.669 0-25.556-10.769-28.744-26.041l-36.072-172.793c-.366-1.752-.047-3.577.892-5.101l17.217-27.955c7.167-11.637 24.071-11.676 31.292-.072l3.93 6.316c4.204 6.757 10.928 9.824 17.408 9.139 5.041-.533 67.935 2.182 73.744 2.057 5.245-.112 10.465-2.668 14.223-7.71l12.907-17.318c7.173-9.624 19.909-10.347 27.873-1.583l17.697 19.475c3.566 3.924 8.108 5.957 12.686 6.12 5.205.185 69.839-4.113 76.234-4.37 5.884-.236 11.69-3.532 15.347-9.898 7.525-13.1 24.212-13.24 31.903-.268z" fill="#fd8087"/><path d="m175.396 512h-39.412c-13.666 0-25.549-10.766-28.741-26.038l-36.074-172.798c-.366-1.752-.046-3.578.893-5.102l17.209-27.932c7.636-12.396 23.618-12.441 31.303-.09l3.931 6.317c.059.091.118.181.177.272l-6.925 11.238c-4.923 7.988-6.606 18.029-4.619 27.547l33.517 160.551c3.192 15.269 15.075 26.035 28.741 26.035z" fill="#fe646f"/><g fill="#fff9e2"><path d="m225.746 512h-55.532l-27.894-216.554c4.887-.634 9.617-3.419 12.977-8.389l6.602-9.759c7.695-11.4 22.682-11.377 30.357.034l7.843 11.649c3.912 5.819 9.745 8.694 15.558 8.559z"/><path d="m377.276 292.152-30.84 219.848h-55.532l10.139-215.467c5.202.181 10.454-2.049 14.366-6.668l12.878-15.215c8.602-10.166 23.184-8.513 29.894 3.385l2.296 4.064c3.921 6.962 10.405 10.324 16.799 10.053z"/></g></g></svg>